ISO-10303-21;
HEADER;
FILE_DESCRIPTION(('Open CASCADE Model'),'2;1');
FILE_NAME('Open CASCADE Shape Model','2026-08-25T12:45:59',('Author'),(
    'Open CASCADE'),'Open CASCADE STEP processor 7.6','Open CASCADE 7.6'
  ,'Unknown');
FILE_SCHEMA((
'AP242_MANAGED_MODEL_BASED_3D_ENGINEERING_MIM_LF. {1 0 10303 442 1 1 4 
}'));
ENDSEC;
DATA;
#1 = APPLICATION_PROTOCOL_DEFINITION('international standard',
  'ap242_managed_model_based_3d_engineering',2013,#2);
#2 = APPLICATION_CONTEXT('Managed model based 3d engineering');
#3 = SHAPE_DEFINITION_REPRESENTATION(#4,#10);
#4 = PRODUCT_DEFINITION_SHAPE('','',#5);
#5 = PRODUCT_DEFINITION('design','',#6,#9);
#6 = PRODUCT_DEFINITION_FORMATION('','',#7);
#7 = PRODUCT('Open CASCADE STEP translator 7.6 2',
  'Open CASCADE STEP translator 7.6 2','',(#8));
#8 = PRODUCT_CONTEXT('',#2,'mechanical');
#9 = PRODUCT_DEFINITION_CONTEXT('part definition',#2,'design');
#10 = ADVANCED_BREP_SHAPE_REPRESENTATION('',(#11,#15),#1177);
#11 = AXIS2_PLACEMENT_3D('',#12,#13,#14);
#12 = CARTESIAN_POINT('',(0.,0.,0.));
#13 = DIRECTION('',(0.,0.,1.));
#14 = DIRECTION('',(1.,0.,-0.));
#15 = MANIFOLD_SOLID_BREP('',#16);
#16 = CLOSED_SHELL('',(#17,#275,#416,#557,#698,#839,#980,#1080,#1155,
    #1166));
#17 = ADVANCED_FACE('',(#18),#39,.T.);
#18 = FACE_BOUND('',#19,.T.);
#19 = EDGE_LOOP('',(#20,#105,#170,#212));
#20 = ORIENTED_EDGE('',*,*,#21,.T.);
#21 = EDGE_CURVE('',#22,#24,#26,.T.);
#22 = VERTEX_POINT('',#23);
#23 = CARTESIAN_POINT('',(-115.,-110.,920.));
#24 = VERTEX_POINT('',#25);
#25 = CARTESIAN_POINT('',(115.,-110.,920.));
#26 = SURFACE_CURVE('',#27,(#38,#86),.PCURVE_S1.);
#27 = B_SPLINE_CURVE_WITH_KNOTS('',9,(#28,#29,#30,#31,#32,#33,#34,#35,
    #36,#37),.UNSPECIFIED.,.F.,.F.,(10,10),(0.,1.),
  .PIECEWISE_BEZIER_KNOTS.);
#28 = CARTESIAN_POINT('',(-115.,-110.,920.));
#29 = CARTESIAN_POINT('',(-89.44444444444,-110.,920.));
#30 = CARTESIAN_POINT('',(-63.88888888888,-110.,920.));
#31 = CARTESIAN_POINT('',(-38.33333333333,-110.,920.));
#32 = CARTESIAN_POINT('',(-12.77777777777,-110.,920.));
#33 = CARTESIAN_POINT('',(12.777777777778,-110.,920.));
#34 = CARTESIAN_POINT('',(38.333333333333,-110.,920.));
#35 = CARTESIAN_POINT('',(63.888888888889,-110.,920.));
#36 = CARTESIAN_POINT('',(89.444444444444,-110.,920.));
#37 = CARTESIAN_POINT('',(115.,-110.,919.99999999999));
#38 = PCURVE('',#39,#80);
#39 = ( BOUNDED_SURFACE() B_SPLINE_SURFACE(9,3,(
    (#40,#41,#42,#43)
    ,(#44,#45,#46,#47)
    ,(#48,#49,#50,#51)
    ,(#52,#53,#54,#55)
    ,(#56,#57,#58,#59)
    ,(#60,#61,#62,#63)
    ,(#64,#65,#66,#67)
    ,(#68,#69,#70,#71)
    ,(#72,#73,#74,#75)
    ,(#76,#77,#78,#79
)),.UNSPECIFIED.,.F.,.F.,.F.) B_SPLINE_SURFACE_WITH_KNOTS((10,10),(4,4),
  (0.,1.),(0.,1.),.PIECEWISE_BEZIER_KNOTS.) 
GEOMETRIC_REPRESENTATION_ITEM() RATIONAL_B_SPLINE_SURFACE((
    (1.,1.,1.,1.)
    ,(1.,1.,1.,1.)
    ,(1.,1.,1.,1.)
    ,(1.,1.,1.,1.)
    ,(1.,1.,1.,1.)
    ,(1.,1.,1.,1.)
    ,(1.,1.,1.,1.)
    ,(1.,1.,1.,1.)
    ,(1.,1.,1.,1.)
,(1.,1.,1.,1.))) REPRESENTATION_ITEM('') SURFACE() );
#40 = CARTESIAN_POINT('',(-115.,-110.,920.));
#41 = CARTESIAN_POINT('',(-61.25661263008,-67.89218751975,
    1.128531766888E+03));
#42 = CARTESIAN_POINT('',(-190.1874410652,-167.0188962926,
    1.340565556652E+03));
#43 = CARTESIAN_POINT('',(-105.,-90.,1.54E+03));
#44 = CARTESIAN_POINT('',(-89.44444444444,-110.,920.));
#45 = CARTESIAN_POINT('',(-47.64403204562,-67.89218751975,
    1.128531766888E+03));
#46 = CARTESIAN_POINT('',(-147.9235652729,-167.0188962926,
    1.340565556652E+03));
#47 = CARTESIAN_POINT('',(-81.66666666666,-90.,1.54E+03));
#48 = CARTESIAN_POINT('',(-63.88888888888,-110.,920.));
#49 = CARTESIAN_POINT('',(-34.03145146116,-67.89218751975,
    1.128531766888E+03));
#50 = CARTESIAN_POINT('',(-105.6596894806,-167.0188962926,
    1.340565556652E+03));
#51 = CARTESIAN_POINT('',(-58.33333333333,-90.,1.54E+03));
#52 = CARTESIAN_POINT('',(-38.33333333333,-110.,920.));
#53 = CARTESIAN_POINT('',(-20.41887087669,-67.89218751975,
    1.128531766888E+03));
#54 = CARTESIAN_POINT('',(-63.3958136884,-167.0188962926,
    1.340565556652E+03));
#55 = CARTESIAN_POINT('',(-35.,-90.,1.54E+03));
#56 = CARTESIAN_POINT('',(-12.77777777777,-110.,920.));
#57 = CARTESIAN_POINT('',(-6.806290292232,-67.89218751975,
    1.128531766888E+03));
#58 = CARTESIAN_POINT('',(-21.13193789613,-167.0188962926,
    1.340565556652E+03));
#59 = CARTESIAN_POINT('',(-11.66666666666,-90.,1.54E+03));
#60 = CARTESIAN_POINT('',(12.777777777778,-110.,920.));
#61 = CARTESIAN_POINT('',(6.806290292232,-67.89218751975,
    1.128531766888E+03));
#62 = CARTESIAN_POINT('',(21.131937896136,-167.0188962926,
    1.340565556652E+03));
#63 = CARTESIAN_POINT('',(11.666666666667,-90.,1.54E+03));
#64 = CARTESIAN_POINT('',(38.333333333333,-110.,920.));
#65 = CARTESIAN_POINT('',(20.418870876696,-67.89218751975,
    1.128531766888E+03));
#66 = CARTESIAN_POINT('',(63.395813688407,-167.0188962926,
    1.340565556652E+03));
#67 = CARTESIAN_POINT('',(35.,-90.,1.54E+03));
#68 = CARTESIAN_POINT('',(63.888888888889,-110.,920.));
#69 = CARTESIAN_POINT('',(34.03145146116,-67.89218751975,
    1.128531766888E+03));
#70 = CARTESIAN_POINT('',(105.65968948067,-167.0188962926,
    1.340565556652E+03));
#71 = CARTESIAN_POINT('',(58.333333333333,-90.,1.54E+03));
#72 = CARTESIAN_POINT('',(89.444444444444,-110.,920.));
#73 = CARTESIAN_POINT('',(47.644032045624,-67.89218751975,
    1.128531766888E+03));
#74 = CARTESIAN_POINT('',(147.92356527294,-167.0188962926,
    1.340565556652E+03));
#75 = CARTESIAN_POINT('',(81.666666666667,-90.,1.54E+03));
#76 = CARTESIAN_POINT('',(115.,-110.,919.99999999999));
#77 = CARTESIAN_POINT('',(61.256612630088,-67.89218751975,
    1.128531766888E+03));
#78 = CARTESIAN_POINT('',(190.18744106522,-167.0188962926,
    1.340565556652E+03));
#79 = CARTESIAN_POINT('',(105.,-90.,1.54E+03));
#80 = DEFINITIONAL_REPRESENTATION('',(#81),#85);
#81 = LINE('',#82,#83);
#82 = CARTESIAN_POINT('',(0.,0.));
#83 = VECTOR('',#84,1.);
#84 = DIRECTION('',(1.,0.));
#85 = ( GEOMETRIC_REPRESENTATION_CONTEXT(2) 
PARAMETRIC_REPRESENTATION_CONTEXT() REPRESENTATION_CONTEXT('2D SPACE',''
  ) );
#86 = PCURVE('',#87,#92);
#87 = PLANE('',#88);
#88 = AXIS2_PLACEMENT_3D('',#89,#90,#91);
#89 = CARTESIAN_POINT('',(-115.,-110.,920.));
#90 = DIRECTION('',(0.,-0.,1.));
#91 = DIRECTION('',(0.798693946768,0.60173746717,0.));
#92 = DEFINITIONAL_REPRESENTATION('',(#93),#104);
#93 = B_SPLINE_CURVE_WITH_KNOTS('',9,(#94,#95,#96,#97,#98,#99,#100,#101,
    #102,#103),.UNSPECIFIED.,.F.,.F.,(10,10),(0.,1.),
  .PIECEWISE_BEZIER_KNOTS.);
#94 = CARTESIAN_POINT('',(0.,0.));
#95 = CARTESIAN_POINT('',(20.411067528519,-15.37773527211));
#96 = CARTESIAN_POINT('',(40.822135057037,-30.75547054423));
#97 = CARTESIAN_POINT('',(61.233202585556,-46.13320581635));
#98 = CARTESIAN_POINT('',(81.644270114074,-61.51094108847));
#99 = CARTESIAN_POINT('',(102.05533764259,-76.88867636059));
#100 = CARTESIAN_POINT('',(122.46640517111,-92.2664116327));
#101 = CARTESIAN_POINT('',(142.87747269963,-107.6441469048));
#102 = CARTESIAN_POINT('',(163.28854022814,-123.0218821769));
#103 = CARTESIAN_POINT('',(183.69960775666,-138.399617449));
#104 = ( GEOMETRIC_REPRESENTATION_CONTEXT(2) 
PARAMETRIC_REPRESENTATION_CONTEXT() REPRESENTATION_CONTEXT('2D SPACE',''
  ) );
#105 = ORIENTED_EDGE('',*,*,#106,.T.);
#106 = EDGE_CURVE('',#24,#107,#109,.T.);
#107 = VERTEX_POINT('',#108);
#108 = CARTESIAN_POINT('',(105.,-90.,1.54E+03));
#109 = SURFACE_CURVE('',#110,(#115,#122),.PCURVE_S1.);
#110 = ( BOUNDED_CURVE() B_SPLINE_CURVE(3,(#111,#112,#113,#114),
.UNSPECIFIED.,.F.,.F.) B_SPLINE_CURVE_WITH_KNOTS((4,4),(0.,1.),
.PIECEWISE_BEZIER_KNOTS.) CURVE() GEOMETRIC_REPRESENTATION_ITEM() 
RATIONAL_B_SPLINE_CURVE((1.,1.,1.,1.)) REPRESENTATION_ITEM('') );
#111 = CARTESIAN_POINT('',(115.,-110.,919.99999999999));
#112 = CARTESIAN_POINT('',(61.256612630088,-67.89218751975,
    1.128531766888E+03));
#113 = CARTESIAN_POINT('',(190.18744106522,-167.0188962926,
    1.340565556652E+03));
#114 = CARTESIAN_POINT('',(105.,-90.,1.54E+03));
#115 = PCURVE('',#39,#116);
#116 = DEFINITIONAL_REPRESENTATION('',(#117),#121);
#117 = LINE('',#118,#119);
#118 = CARTESIAN_POINT('',(1.,0.));
#119 = VECTOR('',#120,1.);
#120 = DIRECTION('',(0.,1.));
#121 = ( GEOMETRIC_REPRESENTATION_CONTEXT(2) 
PARAMETRIC_REPRESENTATION_CONTEXT() REPRESENTATION_CONTEXT('2D SPACE',''
  ) );
#122 = PCURVE('',#123,#164);
#123 = ( BOUNDED_SURFACE() B_SPLINE_SURFACE(9,3,(
    (#124,#125,#126,#127)
    ,(#128,#129,#130,#131)
    ,(#132,#133,#134,#135)
    ,(#136,#137,#138,#139)
    ,(#140,#141,#142,#143)
    ,(#144,#145,#146,#147)
    ,(#148,#149,#150,#151)
    ,(#152,#153,#154,#155)
    ,(#156,#157,#158,#159)
    ,(#160,#161,#162,#163
)),.UNSPECIFIED.,.F.,.F.,.F.) B_SPLINE_SURFACE_WITH_KNOTS((10,10),(4,4),
  (1.,2.),(0.,1.),.PIECEWISE_BEZIER_KNOTS.) 
GEOMETRIC_REPRESENTATION_ITEM() RATIONAL_B_SPLINE_SURFACE((
    (1.,1.,1.,1.)
    ,(1.,1.,1.,1.)
    ,(1.,1.,1.,1.)
    ,(1.,1.,1.,1.)
    ,(1.,1.,1.,1.)
    ,(1.,1.,1.,1.)
    ,(1.,1.,1.,1.)
    ,(1.,1.,1.,1.)
    ,(1.,1.,1.,1.)
,(1.,1.,1.,1.))) REPRESENTATION_ITEM('') SURFACE() );
#124 = CARTESIAN_POINT('',(115.,-110.,919.99999999999));
#125 = CARTESIAN_POINT('',(61.256612630088,-67.89218751975,
    1.128531766888E+03));
#126 = CARTESIAN_POINT('',(190.18744106522,-167.0188962926,
    1.340565556652E+03));
#127 = CARTESIAN_POINT('',(105.,-90.,1.54E+03));
#128 = CARTESIAN_POINT('',(123.72664625996,-109.9999999999,
    919.99999999998));
#129 = CARTESIAN_POINT('',(65.53199173832,-67.89218751975,
    1.128531766888E+03));
#130 = CARTESIAN_POINT('',(203.35490133221,-167.0188962926,
    1.340565556652E+03));
#131 = CARTESIAN_POINT('',(112.85398163397,-89.99999999999,1.54E+03));
#132 = CARTESIAN_POINT('',(132.45329264501,-108.2865271522,
    920.00000000005));
#133 = CARTESIAN_POINT('',(69.807370907836,-67.05271886275,
    1.128531766889E+03));
#134 = CARTESIAN_POINT('',(216.52236178793,-164.433471724,
    1.340565556652E+03));
#135 = CARTESIAN_POINT('',(120.7079633805,-88.457874437,1.54E+03));
#136 = CARTESIAN_POINT('',(140.79543565801,-104.8595802578,
    919.99999999987));
#137 = CARTESIAN_POINT('',(73.894373278859,-65.37378096147,
    1.128531766888E+03));
#138 = CARTESIAN_POINT('',(229.10965287238,-159.262620778,
    1.340565556652E+03));
#139 = CARTESIAN_POINT('',(128.21589209222,-85.37362223208,1.54E+03));
#140 = CARTESIAN_POINT('',(148.36857724409,-99.81982697054,
    920.00000000017));
#141 = CARTESIAN_POINT('',(77.604624657957,-62.90469314999,
    1.128531766889E+03));
#142 = CARTESIAN_POINT('',(240.53661323727,-151.6582388437,
    1.340565556652E+03));
#143 = CARTESIAN_POINT('',(135.03171951966,-80.83784427349,1.54E+03));
#144 = CARTESIAN_POINT('',(154.81982697049,-93.36857724403,
    919.99999999982));
#145 = CARTESIAN_POINT('',(80.765236132339,-59.74408167557,
    1.128531766888E+03));
#146 = CARTESIAN_POINT('',(250.27077363683,-141.924078444,
    1.340565556652E+03));
#147 = CARTESIAN_POINT('',(140.83784427346,-75.03171951963,1.54E+03));
#148 = CARTESIAN_POINT('',(159.85958025792,-85.79543565805,
    920.00000000012));
#149 = CARTESIAN_POINT('',(83.234323943838,-56.03383029651,
    1.128531766889E+03));
#150 = CARTESIAN_POINT('',(257.87515557129,-130.4971180793,
    1.340565556652E+03));
#151 = CARTESIAN_POINT('',(145.37362223211,-68.21589209224,1.54E+03));
#152 = CARTESIAN_POINT('',(163.2865271522,-77.45329264499,
    919.99999999993));
#153 = CARTESIAN_POINT('',(84.913261845116,-51.94682792546,
    1.128531766888E+03));
#154 = CARTESIAN_POINT('',(263.04600651716,-117.9098269947,
    1.340565556652E+03));
#155 = CARTESIAN_POINT('',(148.45787443699,-60.70796338049,1.54E+03));
#156 = CARTESIAN_POINT('',(165.,-68.72664625997,920.00000000001));
#157 = CARTESIAN_POINT('',(85.752730502113,-47.67144875596,
    1.128531766888E+03));
#158 = CARTESIAN_POINT('',(265.63143108575,-104.742366539,
    1.340565556652E+03));
#159 = CARTESIAN_POINT('',(150.,-52.85398163397,1.54E+03));
#160 = CARTESIAN_POINT('',(165.,-60.,920.));
#161 = CARTESIAN_POINT('',(85.752730502113,-43.39606964772,
    1.128531766888E+03));
#162 = CARTESIAN_POINT('',(265.63143108575,-91.57490627208,
    1.340565556652E+03));
#163 = CARTESIAN_POINT('',(150.,-45.,1.54E+03));
#164 = DEFINITIONAL_REPRESENTATION('',(#165),#169);
#165 = LINE('',#166,#167);
#166 = CARTESIAN_POINT('',(1.,0.));
#167 = VECTOR('',#168,1.);
#168 = DIRECTION('',(0.,1.));
#169 = ( GEOMETRIC_REPRESENTATION_CONTEXT(2) 
PARAMETRIC_REPRESENTATION_CONTEXT() REPRESENTATION_CONTEXT('2D SPACE',''
  ) );
#170 = ORIENTED_EDGE('',*,*,#171,.F.);
#171 = EDGE_CURVE('',#172,#107,#174,.T.);
#172 = VERTEX_POINT('',#173);
#173 = CARTESIAN_POINT('',(-105.,-90.,1.54E+03));
#174 = SURFACE_CURVE('',#175,(#186,#193),.PCURVE_S1.);
#175 = B_SPLINE_CURVE_WITH_KNOTS('',9,(#176,#177,#178,#179,#180,#181,
    #182,#183,#184,#185),.UNSPECIFIED.,.F.,.F.,(10,10),(0.,1.),
  .PIECEWISE_BEZIER_KNOTS.);
#176 = CARTESIAN_POINT('',(-105.,-90.,1.54E+03));
#177 = CARTESIAN_POINT('',(-81.66666666666,-90.,1.54E+03));
#178 = CARTESIAN_POINT('',(-58.33333333333,-90.,1.54E+03));
#179 = CARTESIAN_POINT('',(-35.,-90.,1.54E+03));
#180 = CARTESIAN_POINT('',(-11.66666666666,-90.,1.54E+03));
#181 = CARTESIAN_POINT('',(11.666666666667,-90.,1.54E+03));
#182 = CARTESIAN_POINT('',(35.,-90.,1.54E+03));
#183 = CARTESIAN_POINT('',(58.333333333333,-90.,1.54E+03));
#184 = CARTESIAN_POINT('',(81.666666666667,-90.,1.54E+03));
#185 = CARTESIAN_POINT('',(105.,-90.,1.54E+03));
#186 = PCURVE('',#39,#187);
#187 = DEFINITIONAL_REPRESENTATION('',(#188),#192);
#188 = LINE('',#189,#190);
#189 = CARTESIAN_POINT('',(0.,1.));
#190 = VECTOR('',#191,1.);
#191 = DIRECTION('',(1.,0.));
#192 = ( GEOMETRIC_REPRESENTATION_CONTEXT(2) 
PARAMETRIC_REPRESENTATION_CONTEXT() REPRESENTATION_CONTEXT('2D SPACE',''
  ) );
#193 = PCURVE('',#194,#199);
#194 = PLANE('',#195);
#195 = AXIS2_PLACEMENT_3D('',#196,#197,#198);
#196 = CARTESIAN_POINT('',(-105.,-90.,1.54E+03));
#197 = DIRECTION('',(1.688370944521E-15,2.18360042723E-16,1.));
#198 = DIRECTION('',(0.845097784761,0.534611760245,-1.543576391876E-15)
  );
#199 = DEFINITIONAL_REPRESENTATION('',(#200),#211);
#200 = B_SPLINE_CURVE_WITH_KNOTS('',9,(#201,#202,#203,#204,#205,#206,
    #207,#208,#209,#210),.UNSPECIFIED.,.F.,.F.,(10,10),(0.,1.),
  .PIECEWISE_BEZIER_KNOTS.);
#201 = CARTESIAN_POINT('',(0.,0.));
#202 = CARTESIAN_POINT('',(19.718948311085,-12.47427440572));
#203 = CARTESIAN_POINT('',(39.437896622169,-24.94854881144));
#204 = CARTESIAN_POINT('',(59.156844933254,-37.42282321716));
#205 = CARTESIAN_POINT('',(78.875793244339,-49.89709762288));
#206 = CARTESIAN_POINT('',(98.594741555424,-62.3713720286));
#207 = CARTESIAN_POINT('',(118.3136898665,-74.84564643432));
#208 = CARTESIAN_POINT('',(138.03263817759,-87.31992084004));
#209 = CARTESIAN_POINT('',(157.75158648867,-99.79419524576));
#210 = CARTESIAN_POINT('',(177.47053479976,-112.2684696514));
#211 = ( GEOMETRIC_REPRESENTATION_CONTEXT(2) 
PARAMETRIC_REPRESENTATION_CONTEXT() REPRESENTATION_CONTEXT('2D SPACE',''
  ) );
#212 = ORIENTED_EDGE('',*,*,#213,.F.);
#213 = EDGE_CURVE('',#22,#172,#214,.T.);
#214 = SURFACE_CURVE('',#215,(#220,#227),.PCURVE_S1.);
#215 = ( BOUNDED_CURVE() B_SPLINE_CURVE(3,(#216,#217,#218,#219),
.UNSPECIFIED.,.F.,.F.) B_SPLINE_CURVE_WITH_KNOTS((4,4),(0.,1.),
.PIECEWISE_BEZIER_KNOTS.) CURVE() GEOMETRIC_REPRESENTATION_ITEM() 
RATIONAL_B_SPLINE_CURVE((1.,1.,1.,1.)) REPRESENTATION_ITEM('') );
#216 = CARTESIAN_POINT('',(-115.,-110.,920.));
#217 = CARTESIAN_POINT('',(-61.25661263008,-67.89218751975,
    1.128531766888E+03));
#218 = CARTESIAN_POINT('',(-190.1874410652,-167.0188962926,
    1.340565556652E+03));
#219 = CARTESIAN_POINT('',(-105.,-90.,1.54E+03));
#220 = PCURVE('',#39,#221);
#221 = DEFINITIONAL_REPRESENTATION('',(#222),#226);
#222 = LINE('',#223,#224);
#223 = CARTESIAN_POINT('',(0.,0.));
#224 = VECTOR('',#225,1.);
#225 = DIRECTION('',(0.,1.));
#226 = ( GEOMETRIC_REPRESENTATION_CONTEXT(2) 
PARAMETRIC_REPRESENTATION_CONTEXT() REPRESENTATION_CONTEXT('2D SPACE',''
  ) );
#227 = PCURVE('',#228,#269);
#228 = ( BOUNDED_SURFACE() B_SPLINE_SURFACE(9,3,(
    (#229,#230,#231,#232)
    ,(#233,#234,#235,#236)
    ,(#237,#238,#239,#240)
    ,(#241,#242,#243,#244)
    ,(#245,#246,#247,#248)
    ,(#249,#250,#251,#252)
    ,(#253,#254,#255,#256)
    ,(#257,#258,#259,#260)
    ,(#261,#262,#263,#264)
    ,(#265,#266,#267,#268
)),.UNSPECIFIED.,.F.,.F.,.F.) B_SPLINE_SURFACE_WITH_KNOTS((10,10),(4,4),
  (7.,8.),(0.,1.),.PIECEWISE_BEZIER_KNOTS.) 
GEOMETRIC_REPRESENTATION_ITEM() RATIONAL_B_SPLINE_SURFACE((
    (1.,1.,1.,1.)
    ,(1.,1.,1.,1.)
    ,(1.,1.,1.,1.)
    ,(1.,1.,1.,1.)
    ,(1.,1.,1.,1.)
    ,(1.,1.,1.,1.)
    ,(1.,1.,1.,1.)
    ,(1.,1.,1.,1.)
    ,(1.,1.,1.,1.)
,(1.,1.,1.,1.))) REPRESENTATION_ITEM('') SURFACE() );
#229 = CARTESIAN_POINT('',(-165.,-60.,920.));
#230 = CARTESIAN_POINT('',(-85.75273050211,-43.39606964772,
    1.128531766888E+03));
#231 = CARTESIAN_POINT('',(-265.6314310857,-91.57490627209,
    1.340565556652E+03));
#232 = CARTESIAN_POINT('',(-150.,-45.,1.54E+03));
#233 = CARTESIAN_POINT('',(-164.9999999999,-68.72664625997,
    919.99999999998));
#234 = CARTESIAN_POINT('',(-85.75273050211,-47.67144875596,
    1.128531766888E+03));
#235 = CARTESIAN_POINT('',(-265.6314310857,-104.742366539,
    1.340565556652E+03));
#236 = CARTESIAN_POINT('',(-149.9999999999,-52.85398163397,1.54E+03));
#237 = CARTESIAN_POINT('',(-163.2865271522,-77.453292645,920.00000000005
    ));
#238 = CARTESIAN_POINT('',(-84.91326184512,-51.94682792545,
    1.128531766889E+03));
#239 = CARTESIAN_POINT('',(-263.0460065171,-117.9098269948,
    1.340565556652E+03));
#240 = CARTESIAN_POINT('',(-148.457874437,-60.7079633805,1.54E+03));
#241 = CARTESIAN_POINT('',(-159.8595802578,-85.79543565803,
    919.99999999988));
#242 = CARTESIAN_POINT('',(-83.23432394382,-56.03383029654,
    1.128531766888E+03));
#243 = CARTESIAN_POINT('',(-257.8751555712,-130.4971180792,
    1.340565556652E+03));
#244 = CARTESIAN_POINT('',(-145.373622232,-68.21589209223,1.54E+03));
#245 = CARTESIAN_POINT('',(-154.8198269705,-93.36857724406,
    920.00000000016));
#246 = CARTESIAN_POINT('',(-80.76523613237,-59.74408167554,
    1.128531766889E+03));
#247 = CARTESIAN_POINT('',(-250.2707736369,-141.9240784441,
    1.340565556652E+03));
#248 = CARTESIAN_POINT('',(-140.8378442734,-75.03171951965,1.54E+03));
#249 = CARTESIAN_POINT('',(-148.368577244,-99.81982697051,
    919.99999999983));
#250 = CARTESIAN_POINT('',(-77.60462465791,-62.90469315003,
    1.128531766888E+03));
#251 = CARTESIAN_POINT('',(-240.5366132372,-151.6582388436,
    1.340565556652E+03));
#252 = CARTESIAN_POINT('',(-135.0317195196,-80.83784427346,1.54E+03));
#253 = CARTESIAN_POINT('',(-140.795435658,-104.8595802579,
    920.00000000012));
#254 = CARTESIAN_POINT('',(-73.89437327889,-65.37378096143,
    1.128531766889E+03));
#255 = CARTESIAN_POINT('',(-229.1096528724,-159.2626207781,
    1.340565556652E+03));
#256 = CARTESIAN_POINT('',(-128.2158920922,-85.3736222321,1.54E+03));
#257 = CARTESIAN_POINT('',(-132.4532926449,-108.2865271522,
    919.99999999993));
#258 = CARTESIAN_POINT('',(-69.80737090781,-67.05271886277,
    1.128531766888E+03));
#259 = CARTESIAN_POINT('',(-216.5223617879,-164.433471724,
    1.340565556652E+03));
#260 = CARTESIAN_POINT('',(-120.7079633804,-88.45787443699,1.54E+03));
#261 = CARTESIAN_POINT('',(-123.7266462599,-110.,920.00000000001));
#262 = CARTESIAN_POINT('',(-65.53199173832,-67.89218751974,
    1.128531766888E+03));
#263 = CARTESIAN_POINT('',(-203.3549013322,-167.0188962926,
    1.340565556652E+03));
#264 = CARTESIAN_POINT('',(-112.8539816339,-90.,1.54E+03));
#265 = CARTESIAN_POINT('',(-115.,-110.,920.));
#266 = CARTESIAN_POINT('',(-61.25661263008,-67.89218751975,
    1.128531766888E+03));
#267 = CARTESIAN_POINT('',(-190.1874410652,-167.0188962926,
    1.340565556652E+03));
#268 = CARTESIAN_POINT('',(-105.,-90.,1.54E+03));
#269 = DEFINITIONAL_REPRESENTATION('',(#270),#274);
#270 = LINE('',#271,#272);
#271 = CARTESIAN_POINT('',(8.,0.));
#272 = VECTOR('',#273,1.);
#273 = DIRECTION('',(0.,1.));
#274 = ( GEOMETRIC_REPRESENTATION_CONTEXT(2) 
PARAMETRIC_REPRESENTATION_CONTEXT() REPRESENTATION_CONTEXT('2D SPACE',''
  ) );
#275 = ADVANCED_FACE('',(#276),#123,.T.);
#276 = FACE_BOUND('',#277,.T.);
#277 = EDGE_LOOP('',(#278,#315,#380,#415));
#278 = ORIENTED_EDGE('',*,*,#279,.T.);
#279 = EDGE_CURVE('',#24,#280,#282,.T.);
#280 = VERTEX_POINT('',#281);
#281 = CARTESIAN_POINT('',(165.,-60.,920.));
#282 = SURFACE_CURVE('',#283,(#294,#301),.PCURVE_S1.);
#283 = B_SPLINE_CURVE_WITH_KNOTS('',9,(#284,#285,#286,#287,#288,#289,
    #290,#291,#292,#293),.UNSPECIFIED.,.F.,.F.,(10,10),(1.,2.),
  .PIECEWISE_BEZIER_KNOTS.);
#284 = CARTESIAN_POINT('',(115.,-110.,919.99999999999));
#285 = CARTESIAN_POINT('',(123.72664625996,-109.9999999999,
    919.99999999998));
#286 = CARTESIAN_POINT('',(132.45329264501,-108.2865271522,
    920.00000000005));
#287 = CARTESIAN_POINT('',(140.79543565801,-104.8595802578,
    919.99999999987));
#288 = CARTESIAN_POINT('',(148.36857724409,-99.81982697054,
    920.00000000017));
#289 = CARTESIAN_POINT('',(154.81982697049,-93.36857724403,
    919.99999999982));
#290 = CARTESIAN_POINT('',(159.85958025792,-85.79543565805,
    920.00000000012));
#291 = CARTESIAN_POINT('',(163.2865271522,-77.45329264499,
    919.99999999993));
#292 = CARTESIAN_POINT('',(165.,-68.72664625997,920.00000000001));
#293 = CARTESIAN_POINT('',(165.,-60.,920.));
#294 = PCURVE('',#123,#295);
#295 = DEFINITIONAL_REPRESENTATION('',(#296),#300);
#296 = LINE('',#297,#298);
#297 = CARTESIAN_POINT('',(0.,0.));
#298 = VECTOR('',#299,1.);
#299 = DIRECTION('',(1.,0.));
#300 = ( GEOMETRIC_REPRESENTATION_CONTEXT(2) 
PARAMETRIC_REPRESENTATION_CONTEXT() REPRESENTATION_CONTEXT('2D SPACE',''
  ) );
#301 = PCURVE('',#87,#302);
#302 = DEFINITIONAL_REPRESENTATION('',(#303),#314);
#303 = B_SPLINE_CURVE_WITH_KNOTS('',9,(#304,#305,#306,#307,#308,#309,
    #310,#311,#312,#313),.UNSPECIFIED.,.F.,.F.,(10,10),(1.,2.),
  .PIECEWISE_BEZIER_KNOTS.);
#304 = CARTESIAN_POINT('',(183.69960775666,-138.399617449));
#305 = CARTESIAN_POINT('',(190.66952730009,-143.6507674664));
#306 = CARTESIAN_POINT('',(198.67050775489,-147.5333771675));
#307 = CARTESIAN_POINT('',(207.39544922678,-149.8160754345));
#308 = CARTESIAN_POINT('',(216.47667994788,-150.3478980273));
#309 = CARTESIAN_POINT('',(225.51121272395,-149.077282592));
#310 = CARTESIAN_POINT('',(234.09347620429,-146.0612686276));
#311 = CARTESIAN_POINT('',(241.85033795211,-141.4605718443));
#312 = CARTESIAN_POINT('',(248.4700284362,-135.5217130125));
#313 = CARTESIAN_POINT('',(253.72117845356,-128.5517934691));
#314 = ( GEOMETRIC_REPRESENTATION_CONTEXT(2) 
PARAMETRIC_REPRESENTATION_CONTEXT() REPRESENTATION_CONTEXT('2D SPACE',''
  ) );
#315 = ORIENTED_EDGE('',*,*,#316,.T.);
#316 = EDGE_CURVE('',#280,#317,#319,.T.);
#317 = VERTEX_POINT('',#318);
#318 = CARTESIAN_POINT('',(150.,-45.,1.54E+03));
#319 = SURFACE_CURVE('',#320,(#325,#332),.PCURVE_S1.);
#320 = ( BOUNDED_CURVE() B_SPLINE_CURVE(3,(#321,#322,#323,#324),
.UNSPECIFIED.,.F.,.F.) B_SPLINE_CURVE_WITH_KNOTS((4,4),(0.,1.),
.PIECEWISE_BEZIER_KNOTS.) CURVE() GEOMETRIC_REPRESENTATION_ITEM() 
RATIONAL_B_SPLINE_CURVE((1.,1.,1.,1.)) REPRESENTATION_ITEM('') );
#321 = CARTESIAN_POINT('',(165.,-60.,920.));
#322 = CARTESIAN_POINT('',(85.752730502113,-43.39606964772,
    1.128531766888E+03));
#323 = CARTESIAN_POINT('',(265.63143108575,-91.57490627208,
    1.340565556652E+03));
#324 = CARTESIAN_POINT('',(150.,-45.,1.54E+03));
#325 = PCURVE('',#123,#326);
#326 = DEFINITIONAL_REPRESENTATION('',(#327),#331);
#327 = LINE('',#328,#329);
#328 = CARTESIAN_POINT('',(2.,0.));
#329 = VECTOR('',#330,1.);
#330 = DIRECTION('',(0.,1.));
#331 = ( GEOMETRIC_REPRESENTATION_CONTEXT(2) 
PARAMETRIC_REPRESENTATION_CONTEXT() REPRESENTATION_CONTEXT('2D SPACE',''
  ) );
#332 = PCURVE('',#333,#374);
#333 = ( BOUNDED_SURFACE() B_SPLINE_SURFACE(9,3,(
    (#334,#335,#336,#337)
    ,(#338,#339,#340,#341)
    ,(#342,#343,#344,#345)
    ,(#346,#347,#348,#349)
    ,(#350,#351,#352,#353)
    ,(#354,#355,#356,#357)
    ,(#358,#359,#360,#361)
    ,(#362,#363,#364,#365)
    ,(#366,#367,#368,#369)
    ,(#370,#371,#372,#373
)),.UNSPECIFIED.,.F.,.F.,.F.) B_SPLINE_SURFACE_WITH_KNOTS((10,10),(4,4),
  (2.,3.),(0.,1.),.PIECEWISE_BEZIER_KNOTS.) 
GEOMETRIC_REPRESENTATION_ITEM() RATIONAL_B_SPLINE_SURFACE((
    (1.,1.,1.,1.)
    ,(1.,1.,1.,1.)
    ,(1.,1.,1.,1.)
    ,(1.,1.,1.,1.)
    ,(1.,1.,1.,1.)
    ,(1.,1.,1.,1.)
    ,(1.,1.,1.,1.)
    ,(1.,1.,1.,1.)
    ,(1.,1.,1.,1.)
,(1.,1.,1.,1.))) REPRESENTATION_ITEM('') SURFACE() );
#334 = CARTESIAN_POINT('',(165.,-60.,920.));
#335 = CARTESIAN_POINT('',(85.752730502113,-43.39606964772,
    1.128531766888E+03));
#336 = CARTESIAN_POINT('',(265.63143108575,-91.57490627208,
    1.340565556652E+03));
#337 = CARTESIAN_POINT('',(150.,-45.,1.54E+03));
#338 = CARTESIAN_POINT('',(165.,-46.66666666666,920.));
#339 = CARTESIAN_POINT('',(85.752730502113,-33.7524986149,
    1.128531766888E+03));
#340 = CARTESIAN_POINT('',(265.63143108575,-71.22492710051,
    1.340565556652E+03));
#341 = CARTESIAN_POINT('',(150.,-35.,1.54E+03));
#342 = CARTESIAN_POINT('',(165.,-33.33333333333,920.));
#343 = CARTESIAN_POINT('',(85.752730502113,-24.10892758207,
    1.128531766888E+03));
#344 = CARTESIAN_POINT('',(265.63143108575,-50.87494792893,
    1.340565556652E+03));
#345 = CARTESIAN_POINT('',(150.,-25.,1.54E+03));
#346 = CARTESIAN_POINT('',(165.,-20.,920.));
#347 = CARTESIAN_POINT('',(85.752730502113,-14.46535654924,
    1.128531766888E+03));
#348 = CARTESIAN_POINT('',(265.63143108575,-30.52496875736,
    1.340565556652E+03));
#349 = CARTESIAN_POINT('',(150.,-15.,1.54E+03));
#350 = CARTESIAN_POINT('',(165.,-6.666666666667,920.));
#351 = CARTESIAN_POINT('',(85.752730502113,-4.821785516414,
    1.128531766888E+03));
#352 = CARTESIAN_POINT('',(265.63143108575,-10.17498958578,
    1.340565556652E+03));
#353 = CARTESIAN_POINT('',(150.,-5.,1.54E+03));
#354 = CARTESIAN_POINT('',(165.,6.666666666667,920.));
#355 = CARTESIAN_POINT('',(85.752730502113,4.821785516414,
    1.128531766888E+03));
#356 = CARTESIAN_POINT('',(265.63143108575,10.174989585788,
    1.340565556652E+03));
#357 = CARTESIAN_POINT('',(150.,5.,1.54E+03));
#358 = CARTESIAN_POINT('',(165.,20.,920.));
#359 = CARTESIAN_POINT('',(85.752730502113,14.465356549243,
    1.128531766888E+03));
#360 = CARTESIAN_POINT('',(265.63143108575,30.524968757363,
    1.340565556652E+03));
#361 = CARTESIAN_POINT('',(150.,15.,1.54E+03));
#362 = CARTESIAN_POINT('',(165.,33.333333333333,920.));
#363 = CARTESIAN_POINT('',(85.752730502113,24.108927582072,
    1.128531766888E+03));
#364 = CARTESIAN_POINT('',(265.63143108575,50.874947928939,
    1.340565556652E+03));
#365 = CARTESIAN_POINT('',(150.,25.,1.54E+03));
#366 = CARTESIAN_POINT('',(165.,46.666666666667,920.));
#367 = CARTESIAN_POINT('',(85.752730502113,33.752498614901,
    1.128531766888E+03));
#368 = CARTESIAN_POINT('',(265.63143108575,71.224927100514,
    1.340565556652E+03));
#369 = CARTESIAN_POINT('',(150.,35.,1.54E+03));
#370 = CARTESIAN_POINT('',(165.,60.,920.));
#371 = CARTESIAN_POINT('',(85.752730502113,43.396069647729,
    1.128531766888E+03));
#372 = CARTESIAN_POINT('',(265.63143108575,91.574906272089,
    1.340565556652E+03));
#373 = CARTESIAN_POINT('',(150.,45.,1.54E+03));
#374 = DEFINITIONAL_REPRESENTATION('',(#375),#379);
#375 = LINE('',#376,#377);
#376 = CARTESIAN_POINT('',(2.,0.));
#377 = VECTOR('',#378,1.);
#378 = DIRECTION('',(0.,1.));
#379 = ( GEOMETRIC_REPRESENTATION_CONTEXT(2) 
PARAMETRIC_REPRESENTATION_CONTEXT() REPRESENTATION_CONTEXT('2D SPACE',''
  ) );
#380 = ORIENTED_EDGE('',*,*,#381,.F.);
#381 = EDGE_CURVE('',#107,#317,#382,.T.);
#382 = SURFACE_CURVE('',#383,(#394,#401),.PCURVE_S1.);
#383 = B_SPLINE_CURVE_WITH_KNOTS('',9,(#384,#385,#386,#387,#388,#389,
    #390,#391,#392,#393),.UNSPECIFIED.,.F.,.F.,(10,10),(1.,2.),
  .PIECEWISE_BEZIER_KNOTS.);
#384 = CARTESIAN_POINT('',(105.,-90.,1.54E+03));
#385 = CARTESIAN_POINT('',(112.85398163397,-89.99999999999,1.54E+03));
#386 = CARTESIAN_POINT('',(120.7079633805,-88.457874437,1.54E+03));
#387 = CARTESIAN_POINT('',(128.21589209222,-85.37362223208,1.54E+03));
#388 = CARTESIAN_POINT('',(135.03171951966,-80.83784427349,1.54E+03));
#389 = CARTESIAN_POINT('',(140.83784427346,-75.03171951963,1.54E+03));
#390 = CARTESIAN_POINT('',(145.37362223211,-68.21589209224,1.54E+03));
#391 = CARTESIAN_POINT('',(148.45787443699,-60.70796338049,1.54E+03));
#392 = CARTESIAN_POINT('',(150.,-52.85398163397,1.54E+03));
#393 = CARTESIAN_POINT('',(150.,-45.,1.54E+03));
#394 = PCURVE('',#123,#395);
#395 = DEFINITIONAL_REPRESENTATION('',(#396),#400);
#396 = LINE('',#397,#398);
#397 = CARTESIAN_POINT('',(0.,1.));
#398 = VECTOR('',#399,1.);
#399 = DIRECTION('',(1.,0.));
#400 = ( GEOMETRIC_REPRESENTATION_CONTEXT(2) 
PARAMETRIC_REPRESENTATION_CONTEXT() REPRESENTATION_CONTEXT('2D SPACE',''
  ) );
#401 = PCURVE('',#194,#402);
#402 = DEFINITIONAL_REPRESENTATION('',(#403),#414);
#403 = B_SPLINE_CURVE_WITH_KNOTS('',9,(#404,#405,#406,#407,#408,#409,
    #410,#411,#412,#413),.UNSPECIFIED.,.F.,.F.,(10,10),(1.,2.),
  .PIECEWISE_BEZIER_KNOTS.);
#404 = CARTESIAN_POINT('',(177.47053479976,-112.2684696514));
#405 = CARTESIAN_POINT('',(184.10791728018,-116.4673005977));
#406 = CARTESIAN_POINT('',(191.56973831748,-119.362884707));
#407 = CARTESIAN_POINT('',(199.5635497402,-120.7702169854));
#408 = CARTESIAN_POINT('',(207.74847063897,-120.5808625789));
#409 = CARTESIAN_POINT('',(215.75923638131,-118.7781419862));
#410 = CARTESIAN_POINT('',(223.23623378482,-115.4429815646));
#411 = CARTESIAN_POINT('',(229.8565554752,-110.7469251424));
#412 = CARTESIAN_POINT('',(235.35863337875,-104.9339810287));
#413 = CARTESIAN_POINT('',(239.55746432503,-98.29659854828));
#414 = ( GEOMETRIC_REPRESENTATION_CONTEXT(2) 
PARAMETRIC_REPRESENTATION_CONTEXT() REPRESENTATION_CONTEXT('2D SPACE',''
  ) );
#415 = ORIENTED_EDGE('',*,*,#106,.F.);
#416 = ADVANCED_FACE('',(#417),#333,.T.);
#417 = FACE_BOUND('',#418,.T.);
#418 = EDGE_LOOP('',(#419,#456,#521,#556));
#419 = ORIENTED_EDGE('',*,*,#420,.T.);
#420 = EDGE_CURVE('',#280,#421,#423,.T.);
#421 = VERTEX_POINT('',#422);
#422 = CARTESIAN_POINT('',(165.,60.,920.));
#423 = SURFACE_CURVE('',#424,(#435,#442),.PCURVE_S1.);
#424 = B_SPLINE_CURVE_WITH_KNOTS('',9,(#425,#426,#427,#428,#429,#430,
    #431,#432,#433,#434),.UNSPECIFIED.,.F.,.F.,(10,10),(2.,3.),
  .PIECEWISE_BEZIER_KNOTS.);
#425 = CARTESIAN_POINT('',(165.,-60.,920.));
#426 = CARTESIAN_POINT('',(165.,-46.66666666666,920.));
#427 = CARTESIAN_POINT('',(165.,-33.33333333333,920.));
#428 = CARTESIAN_POINT('',(165.,-20.,920.));
#429 = CARTESIAN_POINT('',(165.,-6.666666666667,920.));
#430 = CARTESIAN_POINT('',(165.,6.666666666667,920.));
#431 = CARTESIAN_POINT('',(165.,20.,920.));
#432 = CARTESIAN_POINT('',(165.,33.333333333333,920.));
#433 = CARTESIAN_POINT('',(165.,46.666666666667,920.));
#434 = CARTESIAN_POINT('',(165.,60.,920.));
#435 = PCURVE('',#333,#436);
#436 = DEFINITIONAL_REPRESENTATION('',(#437),#441);
#437 = LINE('',#438,#439);
#438 = CARTESIAN_POINT('',(0.,0.));
#439 = VECTOR('',#440,1.);
#440 = DIRECTION('',(1.,0.));
#441 = ( GEOMETRIC_REPRESENTATION_CONTEXT(2) 
PARAMETRIC_REPRESENTATION_CONTEXT() REPRESENTATION_CONTEXT('2D SPACE',''
  ) );
#442 = PCURVE('',#87,#443);
#443 = DEFINITIONAL_REPRESENTATION('',(#444),#455);
#444 = B_SPLINE_CURVE_WITH_KNOTS('',9,(#445,#446,#447,#448,#449,#450,
    #451,#452,#453,#454),.UNSPECIFIED.,.F.,.F.,(10,10),(2.,3.),
  .PIECEWISE_BEZIER_KNOTS.);
#445 = CARTESIAN_POINT('',(253.72117845356,-128.5517934691));
#446 = CARTESIAN_POINT('',(261.74434468249,-117.9025408455));
#447 = CARTESIAN_POINT('',(269.76751091142,-107.2532882219));
#448 = CARTESIAN_POINT('',(277.79067714035,-96.60403559842));
#449 = CARTESIAN_POINT('',(285.81384336928,-85.95478297484));
#450 = CARTESIAN_POINT('',(293.83700959822,-75.30553035127));
#451 = CARTESIAN_POINT('',(301.86017582715,-64.65627772769));
#452 = CARTESIAN_POINT('',(309.88334205608,-54.00702510412));
#453 = CARTESIAN_POINT('',(317.90650828501,-43.35777248054));
#454 = CARTESIAN_POINT('',(325.92967451394,-32.70851985697));
#455 = ( GEOMETRIC_REPRESENTATION_CONTEXT(2) 
PARAMETRIC_REPRESENTATION_CONTEXT() REPRESENTATION_CONTEXT('2D SPACE',''
  ) );
#456 = ORIENTED_EDGE('',*,*,#457,.T.);
#457 = EDGE_CURVE('',#421,#458,#460,.T.);
#458 = VERTEX_POINT('',#459);
#459 = CARTESIAN_POINT('',(150.,45.,1.54E+03));
#460 = SURFACE_CURVE('',#461,(#466,#473),.PCURVE_S1.);
#461 = ( BOUNDED_CURVE() B_SPLINE_CURVE(3,(#462,#463,#464,#465),
.UNSPECIFIED.,.F.,.F.) B_SPLINE_CURVE_WITH_KNOTS((4,4),(0.,1.),
.PIECEWISE_BEZIER_KNOTS.) CURVE() GEOMETRIC_REPRESENTATION_ITEM() 
RATIONAL_B_SPLINE_CURVE((1.,1.,1.,1.)) REPRESENTATION_ITEM('') );
#462 = CARTESIAN_POINT('',(165.,60.,920.));
#463 = CARTESIAN_POINT('',(85.752730502113,43.396069647729,
    1.128531766888E+03));
#464 = CARTESIAN_POINT('',(265.63143108575,91.574906272089,
    1.340565556652E+03));
#465 = CARTESIAN_POINT('',(150.,45.,1.54E+03));
#466 = PCURVE('',#333,#467);
#467 = DEFINITIONAL_REPRESENTATION('',(#468),#472);
#468 = LINE('',#469,#470);
#469 = CARTESIAN_POINT('',(3.,0.));
#470 = VECTOR('',#471,1.);
#471 = DIRECTION('',(0.,1.));
#472 = ( GEOMETRIC_REPRESENTATION_CONTEXT(2) 
PARAMETRIC_REPRESENTATION_CONTEXT() REPRESENTATION_CONTEXT('2D SPACE',''
  ) );
#473 = PCURVE('',#474,#515);
#474 = ( BOUNDED_SURFACE() B_SPLINE_SURFACE(9,3,(
    (#475,#476,#477,#478)
    ,(#479,#480,#481,#482)
    ,(#483,#484,#485,#486)
    ,(#487,#488,#489,#490)
    ,(#491,#492,#493,#494)
    ,(#495,#496,#497,#498)
    ,(#499,#500,#501,#502)
    ,(#503,#504,#505,#506)
    ,(#507,#508,#509,#510)
    ,(#511,#512,#513,#514
)),.UNSPECIFIED.,.F.,.F.,.F.) B_SPLINE_SURFACE_WITH_KNOTS((10,10),(4,4),
  (3.,4.),(0.,1.),.PIECEWISE_BEZIER_KNOTS.) 
GEOMETRIC_REPRESENTATION_ITEM() RATIONAL_B_SPLINE_SURFACE((
    (1.,1.,1.,1.)
    ,(1.,1.,1.,1.)
    ,(1.,1.,1.,1.)
    ,(1.,1.,1.,1.)
    ,(1.,1.,1.,1.)
    ,(1.,1.,1.,1.)
    ,(1.,1.,1.,1.)
    ,(1.,1.,1.,1.)
    ,(1.,1.,1.,1.)
,(1.,1.,1.,1.))) REPRESENTATION_ITEM('') SURFACE() );
#475 = CARTESIAN_POINT('',(165.,60.,920.));
#476 = CARTESIAN_POINT('',(85.752730502113,43.396069647729,
    1.128531766888E+03));
#477 = CARTESIAN_POINT('',(265.63143108575,91.574906272089,
    1.340565556652E+03));
#478 = CARTESIAN_POINT('',(150.,45.,1.54E+03));
#479 = CARTESIAN_POINT('',(164.99999999999,68.72664625997,
    919.99999999999));
#480 = CARTESIAN_POINT('',(85.752730502113,47.671448755962,
    1.128531766888E+03));
#481 = CARTESIAN_POINT('',(265.63143108574,104.74236653908,
    1.340565556652E+03));
#482 = CARTESIAN_POINT('',(149.99999999999,52.853981633974,1.54E+03));
#483 = CARTESIAN_POINT('',(163.28652715223,77.453292645005,
    920.00000000002));
#484 = CARTESIAN_POINT('',(84.913261845117,51.94682792547,
    1.128531766889E+03));
#485 = CARTESIAN_POINT('',(263.0460065172,117.90982699478,
    1.340565556652E+03));
#486 = CARTESIAN_POINT('',(148.457874437,60.707963380501,1.54E+03));
#487 = CARTESIAN_POINT('',(159.85958025787,85.795435658026,
    919.99999999994));
#488 = CARTESIAN_POINT('',(83.234323943828,56.033830296513,
    1.128531766888E+03));
#489 = CARTESIAN_POINT('',(257.87515557122,130.49711807928,
    1.340565556652E+03));
#490 = CARTESIAN_POINT('',(145.37362223209,68.215892092231,1.54E+03));
#491 = CARTESIAN_POINT('',(154.81982697055,93.368577244076,
    920.00000000007));
#492 = CARTESIAN_POINT('',(80.765236132362,59.74408167558,
    1.128531766889E+03));
#493 = CARTESIAN_POINT('',(250.27077363693,141.9240784441,
    1.340565556652E+03));
#494 = CARTESIAN_POINT('',(140.83784427348,75.031719519656,1.54E+03));
#495 = CARTESIAN_POINT('',(148.36857724402,99.819826970506,
    919.99999999992));
#496 = CARTESIAN_POINT('',(77.604624657925,62.904693149997,
    1.128531766888E+03));
#497 = CARTESIAN_POINT('',(240.53661323718,151.65823884374,
    1.340565556652E+03));
#498 = CARTESIAN_POINT('',(135.03171951964,80.837844273469,1.54E+03));
#499 = CARTESIAN_POINT('',(140.79543565805,104.8595802579,
    920.00000000005));
#500 = CARTESIAN_POINT('',(73.894373278887,65.373780961468,
    1.128531766889E+03));
#501 = CARTESIAN_POINT('',(229.10965287244,159.26262077813,
    1.340565556652E+03));
#502 = CARTESIAN_POINT('',(128.21589209224,85.373622232108,1.54E+03));
#503 = CARTESIAN_POINT('',(132.45329264499,108.28652715221,
    919.99999999997));
#504 = CARTESIAN_POINT('',(69.80737090782,67.052718862761,
    1.128531766888E+03));
#505 = CARTESIAN_POINT('',(216.5223617879,164.43347172405,
    1.340565556652E+03));
#506 = CARTESIAN_POINT('',(120.70796338049,88.457874436998,1.54E+03));
#507 = CARTESIAN_POINT('',(123.72664625997,110.,920.));
#508 = CARTESIAN_POINT('',(65.531991738324,67.892187519753,
    1.128531766888E+03));
#509 = CARTESIAN_POINT('',(203.35490133222,167.01889629262,
    1.340565556652E+03));
#510 = CARTESIAN_POINT('',(112.85398163397,90.000000000001,1.54E+03));
#511 = CARTESIAN_POINT('',(115.,110.,920.));
#512 = CARTESIAN_POINT('',(61.256612630088,67.892187519753,
    1.128531766888E+03));
#513 = CARTESIAN_POINT('',(190.18744106522,167.01889629262,
    1.340565556652E+03));
#514 = CARTESIAN_POINT('',(105.,90.,1.54E+03));
#515 = DEFINITIONAL_REPRESENTATION('',(#516),#520);
#516 = LINE('',#517,#518);
#517 = CARTESIAN_POINT('',(3.,0.));
#518 = VECTOR('',#519,1.);
#519 = DIRECTION('',(0.,1.));
#520 = ( GEOMETRIC_REPRESENTATION_CONTEXT(2) 
PARAMETRIC_REPRESENTATION_CONTEXT() REPRESENTATION_CONTEXT('2D SPACE',''
  ) );
#521 = ORIENTED_EDGE('',*,*,#522,.F.);
#522 = EDGE_CURVE('',#317,#458,#523,.T.);
#523 = SURFACE_CURVE('',#524,(#535,#542),.PCURVE_S1.);
#524 = B_SPLINE_CURVE_WITH_KNOTS('',9,(#525,#526,#527,#528,#529,#530,
    #531,#532,#533,#534),.UNSPECIFIED.,.F.,.F.,(10,10),(2.,3.),
  .PIECEWISE_BEZIER_KNOTS.);
#525 = CARTESIAN_POINT('',(150.,-45.,1.54E+03));
#526 = CARTESIAN_POINT('',(150.,-35.,1.54E+03));
#527 = CARTESIAN_POINT('',(150.,-25.,1.54E+03));
#528 = CARTESIAN_POINT('',(150.,-15.,1.54E+03));
#529 = CARTESIAN_POINT('',(150.,-5.,1.54E+03));
#530 = CARTESIAN_POINT('',(150.,5.,1.54E+03));
#531 = CARTESIAN_POINT('',(150.,15.,1.54E+03));
#532 = CARTESIAN_POINT('',(150.,25.,1.54E+03));
#533 = CARTESIAN_POINT('',(150.,35.,1.54E+03));
#534 = CARTESIAN_POINT('',(150.,45.,1.54E+03));
#535 = PCURVE('',#333,#536);
#536 = DEFINITIONAL_REPRESENTATION('',(#537),#541);
#537 = LINE('',#538,#539);
#538 = CARTESIAN_POINT('',(0.,1.));
#539 = VECTOR('',#540,1.);
#540 = DIRECTION('',(1.,0.));
#541 = ( GEOMETRIC_REPRESENTATION_CONTEXT(2) 
PARAMETRIC_REPRESENTATION_CONTEXT() REPRESENTATION_CONTEXT('2D SPACE',''
  ) );
#542 = PCURVE('',#194,#543);
#543 = DEFINITIONAL_REPRESENTATION('',(#544),#555);
#544 = B_SPLINE_CURVE_WITH_KNOTS('',9,(#545,#546,#547,#548,#549,#550,
    #551,#552,#553,#554),.UNSPECIFIED.,.F.,.F.,(10,10),(2.,3.),
  .PIECEWISE_BEZIER_KNOTS.);
#545 = CARTESIAN_POINT('',(239.55746432503,-98.29659854828));
#546 = CARTESIAN_POINT('',(244.90358192748,-89.84562070067));
#547 = CARTESIAN_POINT('',(250.24969952993,-81.39464285306));
#548 = CARTESIAN_POINT('',(255.59581713238,-72.94366500545));
#549 = CARTESIAN_POINT('',(260.94193473483,-64.49268715785));
#550 = CARTESIAN_POINT('',(266.28805233728,-56.04170931024));
#551 = CARTESIAN_POINT('',(271.63416993974,-47.59073146263));
#552 = CARTESIAN_POINT('',(276.98028754219,-39.13975361502));
#553 = CARTESIAN_POINT('',(282.32640514464,-30.68877576742));
#554 = CARTESIAN_POINT('',(287.67252274709,-22.23779791981));
#555 = ( GEOMETRIC_REPRESENTATION_CONTEXT(2) 
PARAMETRIC_REPRESENTATION_CONTEXT() REPRESENTATION_CONTEXT('2D SPACE',''
  ) );
#556 = ORIENTED_EDGE('',*,*,#316,.F.);
#557 = ADVANCED_FACE('',(#558),#474,.T.);
#558 = FACE_BOUND('',#559,.T.);
#559 = EDGE_LOOP('',(#560,#597,#662,#697));
#560 = ORIENTED_EDGE('',*,*,#561,.T.);
#561 = EDGE_CURVE('',#421,#562,#564,.T.);
#562 = VERTEX_POINT('',#563);
#563 = CARTESIAN_POINT('',(115.,110.,920.));
#564 = SURFACE_CURVE('',#565,(#576,#583),.PCURVE_S1.);
#565 = B_SPLINE_CURVE_WITH_KNOTS('',9,(#566,#567,#568,#569,#570,#571,
    #572,#573,#574,#575),.UNSPECIFIED.,.F.,.F.,(10,10),(3.,4.),
  .PIECEWISE_BEZIER_KNOTS.);
#566 = CARTESIAN_POINT('',(165.,60.,920.));
#567 = CARTESIAN_POINT('',(164.99999999999,68.72664625997,
    919.99999999999));
#568 = CARTESIAN_POINT('',(163.28652715223,77.453292645005,
    920.00000000002));
#569 = CARTESIAN_POINT('',(159.85958025787,85.795435658026,
    919.99999999994));
#570 = CARTESIAN_POINT('',(154.81982697055,93.368577244076,
    920.00000000007));
#571 = CARTESIAN_POINT('',(148.36857724402,99.819826970506,
    919.99999999992));
#572 = CARTESIAN_POINT('',(140.79543565805,104.8595802579,
    920.00000000005));
#573 = CARTESIAN_POINT('',(132.45329264499,108.28652715221,
    919.99999999997));
#574 = CARTESIAN_POINT('',(123.72664625997,110.,920.));
#575 = CARTESIAN_POINT('',(115.,110.,920.));
#576 = PCURVE('',#474,#577);
#577 = DEFINITIONAL_REPRESENTATION('',(#578),#582);
#578 = LINE('',#579,#580);
#579 = CARTESIAN_POINT('',(0.,0.));
#580 = VECTOR('',#581,1.);
#581 = DIRECTION('',(1.,0.));
#582 = ( GEOMETRIC_REPRESENTATION_CONTEXT(2) 
PARAMETRIC_REPRESENTATION_CONTEXT() REPRESENTATION_CONTEXT('2D SPACE',''
  ) );
#583 = PCURVE('',#87,#584);
#584 = DEFINITIONAL_REPRESENTATION('',(#585),#596);
#585 = B_SPLINE_CURVE_WITH_KNOTS('',9,(#586,#587,#588,#589,#590,#591,
    #592,#593,#594,#595),.UNSPECIFIED.,.F.,.F.,(10,10),(3.,4.),
  .PIECEWISE_BEZIER_KNOTS.);
#586 = CARTESIAN_POINT('',(325.92967451394,-32.70851985697));
#587 = CARTESIAN_POINT('',(331.1808245313,-25.73860031354));
#588 = CARTESIAN_POINT('',(335.06343423246,-17.73761985875));
#589 = CARTESIAN_POINT('',(337.34613249946,-9.012678386844));
#590 = CARTESIAN_POINT('',(337.87795509218,6.85523342239E-02));
#591 = CARTESIAN_POINT('',(336.60733965698,9.103085110333));
#592 = CARTESIAN_POINT('',(333.59132569257,17.685348590646));
#593 = CARTESIAN_POINT('',(328.99062890926,25.442210338478));
#594 = CARTESIAN_POINT('',(323.05177007746,32.061900822562));
#595 = CARTESIAN_POINT('',(316.08185053403,37.313050839925));
#596 = ( GEOMETRIC_REPRESENTATION_CONTEXT(2) 
PARAMETRIC_REPRESENTATION_CONTEXT() REPRESENTATION_CONTEXT('2D SPACE',''
  ) );
#597 = ORIENTED_EDGE('',*,*,#598,.T.);
#598 = EDGE_CURVE('',#562,#599,#601,.T.);
#599 = VERTEX_POINT('',#600);
#600 = CARTESIAN_POINT('',(105.,90.,1.54E+03));
#601 = SURFACE_CURVE('',#602,(#607,#614),.PCURVE_S1.);
#602 = ( BOUNDED_CURVE() B_SPLINE_CURVE(3,(#603,#604,#605,#606),
.UNSPECIFIED.,.F.,.F.) B_SPLINE_CURVE_WITH_KNOTS((4,4),(0.,1.),
.PIECEWISE_BEZIER_KNOTS.) CURVE() GEOMETRIC_REPRESENTATION_ITEM() 
RATIONAL_B_SPLINE_CURVE((1.,1.,1.,1.)) REPRESENTATION_ITEM('') );
#603 = CARTESIAN_POINT('',(115.,110.,920.));
#604 = CARTESIAN_POINT('',(61.256612630088,67.892187519753,
    1.128531766888E+03));
#605 = CARTESIAN_POINT('',(190.18744106522,167.01889629262,
    1.340565556652E+03));
#606 = CARTESIAN_POINT('',(105.,90.,1.54E+03));
#607 = PCURVE('',#474,#608);
#608 = DEFINITIONAL_REPRESENTATION('',(#609),#613);
#609 = LINE('',#610,#611);
#610 = CARTESIAN_POINT('',(4.,0.));
#611 = VECTOR('',#612,1.);
#612 = DIRECTION('',(0.,1.));
#613 = ( GEOMETRIC_REPRESENTATION_CONTEXT(2) 
PARAMETRIC_REPRESENTATION_CONTEXT() REPRESENTATION_CONTEXT('2D SPACE',''
  ) );
#614 = PCURVE('',#615,#656);
#615 = ( BOUNDED_SURFACE() B_SPLINE_SURFACE(9,3,(
    (#616,#617,#618,#619)
    ,(#620,#621,#622,#623)
    ,(#624,#625,#626,#627)
    ,(#628,#629,#630,#631)
    ,(#632,#633,#634,#635)
    ,(#636,#637,#638,#639)
    ,(#640,#641,#642,#643)
    ,(#644,#645,#646,#647)
    ,(#648,#649,#650,#651)
    ,(#652,#653,#654,#655
)),.UNSPECIFIED.,.F.,.F.,.F.) B_SPLINE_SURFACE_WITH_KNOTS((10,10),(4,4),
  (4.,5.),(0.,1.),.PIECEWISE_BEZIER_KNOTS.) 
GEOMETRIC_REPRESENTATION_ITEM() RATIONAL_B_SPLINE_SURFACE((
    (1.,1.,1.,1.)
    ,(1.,1.,1.,1.)
    ,(1.,1.,1.,1.)
    ,(1.,1.,1.,1.)
    ,(1.,1.,1.,1.)
    ,(1.,1.,1.,1.)
    ,(1.,1.,1.,1.)
    ,(1.,1.,1.,1.)
    ,(1.,1.,1.,1.)
,(1.,1.,1.,1.))) REPRESENTATION_ITEM('') SURFACE() );
#616 = CARTESIAN_POINT('',(115.,110.,920.));
#617 = CARTESIAN_POINT('',(61.256612630088,67.892187519753,
    1.128531766888E+03));
#618 = CARTESIAN_POINT('',(190.18744106522,167.01889629262,
    1.340565556652E+03));
#619 = CARTESIAN_POINT('',(105.,90.,1.54E+03));
#620 = CARTESIAN_POINT('',(89.444444444444,110.,920.));
#621 = CARTESIAN_POINT('',(47.644032045624,67.892187519753,
    1.128531766888E+03));
#622 = CARTESIAN_POINT('',(147.92356527294,167.01889629262,
    1.340565556652E+03));
#623 = CARTESIAN_POINT('',(81.666666666667,90.,1.54E+03));
#624 = CARTESIAN_POINT('',(63.888888888889,110.,920.));
#625 = CARTESIAN_POINT('',(34.03145146116,67.892187519753,
    1.128531766888E+03));
#626 = CARTESIAN_POINT('',(105.65968948067,167.01889629262,
    1.340565556652E+03));
#627 = CARTESIAN_POINT('',(58.333333333333,90.,1.54E+03));
#628 = CARTESIAN_POINT('',(38.333333333333,110.,920.));
#629 = CARTESIAN_POINT('',(20.418870876696,67.892187519753,
    1.128531766888E+03));
#630 = CARTESIAN_POINT('',(63.395813688407,167.01889629262,
    1.340565556652E+03));
#631 = CARTESIAN_POINT('',(35.,90.,1.54E+03));
#632 = CARTESIAN_POINT('',(12.777777777778,110.,920.));
#633 = CARTESIAN_POINT('',(6.806290292232,67.892187519753,
    1.128531766888E+03));
#634 = CARTESIAN_POINT('',(21.131937896136,167.01889629262,
    1.340565556652E+03));
#635 = CARTESIAN_POINT('',(11.666666666667,90.,1.54E+03));
#636 = CARTESIAN_POINT('',(-12.77777777777,110.,920.));
#637 = CARTESIAN_POINT('',(-6.806290292232,67.892187519753,
    1.128531766888E+03));
#638 = CARTESIAN_POINT('',(-21.13193789613,167.01889629262,
    1.340565556652E+03));
#639 = CARTESIAN_POINT('',(-11.66666666666,90.,1.54E+03));
#640 = CARTESIAN_POINT('',(-38.33333333333,110.,920.));
#641 = CARTESIAN_POINT('',(-20.41887087669,67.892187519753,
    1.128531766888E+03));
#642 = CARTESIAN_POINT('',(-63.3958136884,167.01889629262,
    1.340565556652E+03));
#643 = CARTESIAN_POINT('',(-35.,90.,1.54E+03));
#644 = CARTESIAN_POINT('',(-63.88888888888,110.,920.));
#645 = CARTESIAN_POINT('',(-34.03145146116,67.892187519753,
    1.128531766888E+03));
#646 = CARTESIAN_POINT('',(-105.6596894806,167.01889629262,
    1.340565556652E+03));
#647 = CARTESIAN_POINT('',(-58.33333333333,90.,1.54E+03));
#648 = CARTESIAN_POINT('',(-89.44444444444,110.,920.));
#649 = CARTESIAN_POINT('',(-47.64403204562,67.892187519753,
    1.128531766888E+03));
#650 = CARTESIAN_POINT('',(-147.9235652729,167.01889629262,
    1.340565556652E+03));
#651 = CARTESIAN_POINT('',(-81.66666666666,90.,1.54E+03));
#652 = CARTESIAN_POINT('',(-115.,110.,920.));
#653 = CARTESIAN_POINT('',(-61.25661263008,67.892187519754,
    1.128531766888E+03));
#654 = CARTESIAN_POINT('',(-190.1874410652,167.01889629262,
    1.340565556652E+03));
#655 = CARTESIAN_POINT('',(-105.,90.,1.54E+03));
#656 = DEFINITIONAL_REPRESENTATION('',(#657),#661);
#657 = LINE('',#658,#659);
#658 = CARTESIAN_POINT('',(4.,0.));
#659 = VECTOR('',#660,1.);
#660 = DIRECTION('',(0.,1.));
#661 = ( GEOMETRIC_REPRESENTATION_CONTEXT(2) 
PARAMETRIC_REPRESENTATION_CONTEXT() REPRESENTATION_CONTEXT('2D SPACE',''
  ) );
#662 = ORIENTED_EDGE('',*,*,#663,.F.);
#663 = EDGE_CURVE('',#458,#599,#664,.T.);
#664 = SURFACE_CURVE('',#665,(#676,#683),.PCURVE_S1.);
#665 = B_SPLINE_CURVE_WITH_KNOTS('',9,(#666,#667,#668,#669,#670,#671,
    #672,#673,#674,#675),.UNSPECIFIED.,.F.,.F.,(10,10),(3.,4.),
  .PIECEWISE_BEZIER_KNOTS.);
#666 = CARTESIAN_POINT('',(150.,45.,1.54E+03));
#667 = CARTESIAN_POINT('',(149.99999999999,52.853981633974,1.54E+03));
#668 = CARTESIAN_POINT('',(148.457874437,60.707963380501,1.54E+03));
#669 = CARTESIAN_POINT('',(145.37362223209,68.215892092231,1.54E+03));
#670 = CARTESIAN_POINT('',(140.83784427348,75.031719519656,1.54E+03));
#671 = CARTESIAN_POINT('',(135.03171951964,80.837844273469,1.54E+03));
#672 = CARTESIAN_POINT('',(128.21589209224,85.373622232108,1.54E+03));
#673 = CARTESIAN_POINT('',(120.70796338049,88.457874436998,1.54E+03));
#674 = CARTESIAN_POINT('',(112.85398163397,90.000000000001,1.54E+03));
#675 = CARTESIAN_POINT('',(105.,90.,1.54E+03));
#676 = PCURVE('',#474,#677);
#677 = DEFINITIONAL_REPRESENTATION('',(#678),#682);
#678 = LINE('',#679,#680);
#679 = CARTESIAN_POINT('',(0.,1.));
#680 = VECTOR('',#681,1.);
#681 = DIRECTION('',(1.,0.));
#682 = ( GEOMETRIC_REPRESENTATION_CONTEXT(2) 
PARAMETRIC_REPRESENTATION_CONTEXT() REPRESENTATION_CONTEXT('2D SPACE',''
  ) );
#683 = PCURVE('',#194,#684);
#684 = DEFINITIONAL_REPRESENTATION('',(#685),#696);
#685 = B_SPLINE_CURVE_WITH_KNOTS('',9,(#686,#687,#688,#689,#690,#691,
    #692,#693,#694,#695),.UNSPECIFIED.,.F.,.F.,(10,10),(3.,4.),
  .PIECEWISE_BEZIER_KNOTS.);
#686 = CARTESIAN_POINT('',(287.67252274709,-22.23779791981));
#687 = CARTESIAN_POINT('',(291.87135369336,-15.60041543938));
#688 = CARTESIAN_POINT('',(294.7669378027,-8.138594402096));
#689 = CARTESIAN_POINT('',(296.17427008106,-0.144782979365));
#690 = CARTESIAN_POINT('',(295.98491567457,8.040137919399));
#691 = CARTESIAN_POINT('',(294.18219508189,16.050903661744));
#692 = CARTESIAN_POINT('',(290.84703466023,23.527901065248));
#693 = CARTESIAN_POINT('',(286.15097823809,30.148222755625));
#694 = CARTESIAN_POINT('',(280.33803412431,35.650300659182));
#695 = CARTESIAN_POINT('',(273.70065164389,39.849131605454));
#696 = ( GEOMETRIC_REPRESENTATION_CONTEXT(2) 
PARAMETRIC_REPRESENTATION_CONTEXT() REPRESENTATION_CONTEXT('2D SPACE',''
  ) );
#697 = ORIENTED_EDGE('',*,*,#457,.F.);
#698 = ADVANCED_FACE('',(#699),#615,.T.);
#699 = FACE_BOUND('',#700,.T.);
#700 = EDGE_LOOP('',(#701,#738,#803,#838));
#701 = ORIENTED_EDGE('',*,*,#702,.T.);
#702 = EDGE_CURVE('',#562,#703,#705,.T.);
#703 = VERTEX_POINT('',#704);
#704 = CARTESIAN_POINT('',(-115.,110.,920.));
#705 = SURFACE_CURVE('',#706,(#717,#724),.PCURVE_S1.);
#706 = B_SPLINE_CURVE_WITH_KNOTS('',9,(#707,#708,#709,#710,#711,#712,
    #713,#714,#715,#716),.UNSPECIFIED.,.F.,.F.,(10,10),(4.,5.),
  .PIECEWISE_BEZIER_KNOTS.);
#707 = CARTESIAN_POINT('',(115.,110.,920.));
#708 = CARTESIAN_POINT('',(89.444444444444,110.,920.));
#709 = CARTESIAN_POINT('',(63.888888888889,110.,920.));
#710 = CARTESIAN_POINT('',(38.333333333333,110.,920.));
#711 = CARTESIAN_POINT('',(12.777777777778,110.,920.));
#712 = CARTESIAN_POINT('',(-12.77777777777,110.,920.));
#713 = CARTESIAN_POINT('',(-38.33333333333,110.,920.));
#714 = CARTESIAN_POINT('',(-63.88888888888,110.,920.));
#715 = CARTESIAN_POINT('',(-89.44444444444,110.,920.));
#716 = CARTESIAN_POINT('',(-115.,110.,920.));
#717 = PCURVE('',#615,#718);
#718 = DEFINITIONAL_REPRESENTATION('',(#719),#723);
#719 = LINE('',#720,#721);
#720 = CARTESIAN_POINT('',(0.,0.));
#721 = VECTOR('',#722,1.);
#722 = DIRECTION('',(1.,0.));
#723 = ( GEOMETRIC_REPRESENTATION_CONTEXT(2) 
PARAMETRIC_REPRESENTATION_CONTEXT() REPRESENTATION_CONTEXT('2D SPACE',''
  ) );
#724 = PCURVE('',#87,#725);
#725 = DEFINITIONAL_REPRESENTATION('',(#726),#737);
#726 = B_SPLINE_CURVE_WITH_KNOTS('',9,(#727,#728,#729,#730,#731,#732,
    #733,#734,#735,#736),.UNSPECIFIED.,.F.,.F.,(10,10),(4.,5.),
  .PIECEWISE_BEZIER_KNOTS.);
#727 = CARTESIAN_POINT('',(316.08185053403,37.313050839925));
#728 = CARTESIAN_POINT('',(295.67078300551,52.690786112042));
#729 = CARTESIAN_POINT('',(275.25971547699,68.06852138416));
#730 = CARTESIAN_POINT('',(254.84864794847,83.446256656278));
#731 = CARTESIAN_POINT('',(234.43758041995,98.823991928396));
#732 = CARTESIAN_POINT('',(214.02651289143,114.20172720051));
#733 = CARTESIAN_POINT('',(193.61544536291,129.57946247263));
#734 = CARTESIAN_POINT('',(173.2043778344,144.95719774475));
#735 = CARTESIAN_POINT('',(152.79331030588,160.33493301686));
#736 = CARTESIAN_POINT('',(132.38224277736,175.71266828898));
#737 = ( GEOMETRIC_REPRESENTATION_CONTEXT(2) 
PARAMETRIC_REPRESENTATION_CONTEXT() REPRESENTATION_CONTEXT('2D SPACE',''
  ) );
#738 = ORIENTED_EDGE('',*,*,#739,.T.);
#739 = EDGE_CURVE('',#703,#740,#742,.T.);
#740 = VERTEX_POINT('',#741);
#741 = CARTESIAN_POINT('',(-105.,90.,1.54E+03));
#742 = SURFACE_CURVE('',#743,(#748,#755),.PCURVE_S1.);
#743 = ( BOUNDED_CURVE() B_SPLINE_CURVE(3,(#744,#745,#746,#747),
.UNSPECIFIED.,.F.,.F.) B_SPLINE_CURVE_WITH_KNOTS((4,4),(0.,1.),
.PIECEWISE_BEZIER_KNOTS.) CURVE() GEOMETRIC_REPRESENTATION_ITEM() 
RATIONAL_B_SPLINE_CURVE((1.,1.,1.,1.)) REPRESENTATION_ITEM('') );
#744 = CARTESIAN_POINT('',(-115.,110.,920.));
#745 = CARTESIAN_POINT('',(-61.25661263008,67.892187519754,
    1.128531766888E+03));
#746 = CARTESIAN_POINT('',(-190.1874410652,167.01889629262,
    1.340565556652E+03));
#747 = CARTESIAN_POINT('',(-105.,90.,1.54E+03));
#748 = PCURVE('',#615,#749);
#749 = DEFINITIONAL_REPRESENTATION('',(#750),#754);
#750 = LINE('',#751,#752);
#751 = CARTESIAN_POINT('',(5.,0.));
#752 = VECTOR('',#753,1.);
#753 = DIRECTION('',(0.,1.));
#754 = ( GEOMETRIC_REPRESENTATION_CONTEXT(2) 
PARAMETRIC_REPRESENTATION_CONTEXT() REPRESENTATION_CONTEXT('2D SPACE',''
  ) );
#755 = PCURVE('',#756,#797);
#756 = ( BOUNDED_SURFACE() B_SPLINE_SURFACE(9,3,(
    (#757,#758,#759,#760)
    ,(#761,#762,#763,#764)
    ,(#765,#766,#767,#768)
    ,(#769,#770,#771,#772)
    ,(#773,#774,#775,#776)
    ,(#777,#778,#779,#780)
    ,(#781,#782,#783,#784)
    ,(#785,#786,#787,#788)
    ,(#789,#790,#791,#792)
    ,(#793,#794,#795,#796
)),.UNSPECIFIED.,.F.,.F.,.F.) B_SPLINE_SURFACE_WITH_KNOTS((10,10),(4,4),
  (5.,6.),(0.,1.),.PIECEWISE_BEZIER_KNOTS.) 
GEOMETRIC_REPRESENTATION_ITEM() RATIONAL_B_SPLINE_SURFACE((
    (1.,1.,1.,1.)
    ,(1.,1.,1.,1.)
    ,(1.,1.,1.,1.)
    ,(1.,1.,1.,1.)
    ,(1.,1.,1.,1.)
    ,(1.,1.,1.,1.)
    ,(1.,1.,1.,1.)
    ,(1.,1.,1.,1.)
    ,(1.,1.,1.,1.)
,(1.,1.,1.,1.))) REPRESENTATION_ITEM('') SURFACE() );
#757 = CARTESIAN_POINT('',(-115.,110.,920.));
#758 = CARTESIAN_POINT('',(-61.25661263008,67.892187519754,
    1.128531766888E+03));
#759 = CARTESIAN_POINT('',(-190.1874410652,167.01889629262,
    1.340565556652E+03));
#760 = CARTESIAN_POINT('',(-105.,90.,1.54E+03));
#761 = CARTESIAN_POINT('',(-123.7266462599,109.99999999999,
    919.99999999999));
#762 = CARTESIAN_POINT('',(-65.53199173831,67.892187519754,
    1.128531766888E+03));
#763 = CARTESIAN_POINT('',(-203.3549013322,167.01889629261,
    1.340565556652E+03));
#764 = CARTESIAN_POINT('',(-112.8539816339,89.999999999998,1.54E+03));
#765 = CARTESIAN_POINT('',(-132.4532926449,108.28652715222,
    919.99999999999));
#766 = CARTESIAN_POINT('',(-69.80737090783,67.052718862758,
    1.128531766888E+03));
#767 = CARTESIAN_POINT('',(-216.5223617879,164.43347172405,
    1.340565556652E+03));
#768 = CARTESIAN_POINT('',(-120.7079633805,88.457874437005,1.54E+03));
#769 = CARTESIAN_POINT('',(-140.795435658,104.85958025788,
    920.00000000002));
#770 = CARTESIAN_POINT('',(-73.89437327885,65.373780961473,
    1.128531766888E+03));
#771 = CARTESIAN_POINT('',(-229.1096528724,159.26262077811,
    1.340565556652E+03));
#772 = CARTESIAN_POINT('',(-128.2158920922,85.373622232095,1.54E+03));
#773 = CARTESIAN_POINT('',(-148.368577244,99.819826970534,
    919.99999999995));
#774 = CARTESIAN_POINT('',(-77.60462465796,62.904693149993,
    1.128531766889E+03));
#775 = CARTESIAN_POINT('',(-240.5366132371,151.65823884376,
    1.340565556652E+03));
#776 = CARTESIAN_POINT('',(-135.0317195196,80.837844273487,1.54E+03));
#777 = CARTESIAN_POINT('',(-154.8198269705,93.36857724405,
    920.00000000005));
#778 = CARTESIAN_POINT('',(-80.76523613232,59.744081675581,
    1.128531766888E+03));
#779 = CARTESIAN_POINT('',(-250.2707736369,141.92407844408,
    1.340565556652E+03));
#780 = CARTESIAN_POINT('',(-140.8378442734,75.031719519637,1.54E+03));
#781 = CARTESIAN_POINT('',(-159.8595802578,85.795435658044,
    919.99999999996));
#782 = CARTESIAN_POINT('',(-83.23432394384,56.033830296513,
    1.128531766888E+03));
#783 = CARTESIAN_POINT('',(-257.8751555712,130.49711807929,
    1.340565556652E+03));
#784 = CARTESIAN_POINT('',(-145.3736222321,68.215892092245,1.54E+03));
#785 = CARTESIAN_POINT('',(-163.2865271522,77.453292644996,
    920.00000000001));
#786 = CARTESIAN_POINT('',(-84.91326184511,51.94682792547,
    1.128531766888E+03));
#787 = CARTESIAN_POINT('',(-263.0460065172,117.90982699478,
    1.340565556652E+03));
#788 = CARTESIAN_POINT('',(-148.457874437,60.707963380494,1.54E+03));
#789 = CARTESIAN_POINT('',(-164.9999999999,68.726646259972,
    919.99999999999));
#790 = CARTESIAN_POINT('',(-85.75273050211,47.671448755962,
    1.128531766888E+03));
#791 = CARTESIAN_POINT('',(-265.6314310857,104.74236653908,
    1.340565556652E+03));
#792 = CARTESIAN_POINT('',(-150.,52.853981633976,1.54E+03));
#793 = CARTESIAN_POINT('',(-165.,60.,920.));
#794 = CARTESIAN_POINT('',(-85.75273050211,43.396069647729,
    1.128531766888E+03));
#795 = CARTESIAN_POINT('',(-265.6314310857,91.574906272089,
    1.340565556652E+03));
#796 = CARTESIAN_POINT('',(-150.,45.,1.54E+03));
#797 = DEFINITIONAL_REPRESENTATION('',(#798),#802);
#798 = LINE('',#799,#800);
#799 = CARTESIAN_POINT('',(5.,0.));
#800 = VECTOR('',#801,1.);
#801 = DIRECTION('',(0.,1.));
#802 = ( GEOMETRIC_REPRESENTATION_CONTEXT(2) 
PARAMETRIC_REPRESENTATION_CONTEXT() REPRESENTATION_CONTEXT('2D SPACE',''
  ) );
#803 = ORIENTED_EDGE('',*,*,#804,.F.);
#804 = EDGE_CURVE('',#599,#740,#805,.T.);
#805 = SURFACE_CURVE('',#806,(#817,#824),.PCURVE_S1.);
#806 = B_SPLINE_CURVE_WITH_KNOTS('',9,(#807,#808,#809,#810,#811,#812,
    #813,#814,#815,#816),.UNSPECIFIED.,.F.,.F.,(10,10),(4.,5.),
  .PIECEWISE_BEZIER_KNOTS.);
#807 = CARTESIAN_POINT('',(105.,90.,1.54E+03));
#808 = CARTESIAN_POINT('',(81.666666666667,90.,1.54E+03));
#809 = CARTESIAN_POINT('',(58.333333333333,90.,1.54E+03));
#810 = CARTESIAN_POINT('',(35.,90.,1.54E+03));
#811 = CARTESIAN_POINT('',(11.666666666667,90.,1.54E+03));
#812 = CARTESIAN_POINT('',(-11.66666666666,90.,1.54E+03));
#813 = CARTESIAN_POINT('',(-35.,90.,1.54E+03));
#814 = CARTESIAN_POINT('',(-58.33333333333,90.,1.54E+03));
#815 = CARTESIAN_POINT('',(-81.66666666666,90.,1.54E+03));
#816 = CARTESIAN_POINT('',(-105.,90.,1.54E+03));
#817 = PCURVE('',#615,#818);
#818 = DEFINITIONAL_REPRESENTATION('',(#819),#823);
#819 = LINE('',#820,#821);
#820 = CARTESIAN_POINT('',(0.,1.));
#821 = VECTOR('',#822,1.);
#822 = DIRECTION('',(1.,0.));
#823 = ( GEOMETRIC_REPRESENTATION_CONTEXT(2) 
PARAMETRIC_REPRESENTATION_CONTEXT() REPRESENTATION_CONTEXT('2D SPACE',''
  ) );
#824 = PCURVE('',#194,#825);
#825 = DEFINITIONAL_REPRESENTATION('',(#826),#837);
#826 = B_SPLINE_CURVE_WITH_KNOTS('',9,(#827,#828,#829,#830,#831,#832,
    #833,#834,#835,#836),.UNSPECIFIED.,.F.,.F.,(10,10),(4.,5.),
  .PIECEWISE_BEZIER_KNOTS.);
#827 = CARTESIAN_POINT('',(273.70065164389,39.849131605454));
#828 = CARTESIAN_POINT('',(253.9817033328,52.323406011175));
#829 = CARTESIAN_POINT('',(234.26275502172,64.797680416895));
#830 = CARTESIAN_POINT('',(214.54380671063,77.271954822616));
#831 = CARTESIAN_POINT('',(194.82485839955,89.746229228337));
#832 = CARTESIAN_POINT('',(175.10591008846,102.22050363405));
#833 = CARTESIAN_POINT('',(155.38696177738,114.69477803977));
#834 = CARTESIAN_POINT('',(135.66801346629,127.16905244549));
#835 = CARTESIAN_POINT('',(115.94906515521,139.64332685121));
#836 = CARTESIAN_POINT('',(96.23011684413,152.11760125693));
#837 = ( GEOMETRIC_REPRESENTATION_CONTEXT(2) 
PARAMETRIC_REPRESENTATION_CONTEXT() REPRESENTATION_CONTEXT('2D SPACE',''
  ) );
#838 = ORIENTED_EDGE('',*,*,#598,.F.);
#839 = ADVANCED_FACE('',(#840),#756,.T.);
#840 = FACE_BOUND('',#841,.T.);
#841 = EDGE_LOOP('',(#842,#879,#944,#979));
#842 = ORIENTED_EDGE('',*,*,#843,.T.);
#843 = EDGE_CURVE('',#703,#844,#846,.T.);
#844 = VERTEX_POINT('',#845);
#845 = CARTESIAN_POINT('',(-165.,60.,920.));
#846 = SURFACE_CURVE('',#847,(#858,#865),.PCURVE_S1.);
#847 = B_SPLINE_CURVE_WITH_KNOTS('',9,(#848,#849,#850,#851,#852,#853,
    #854,#855,#856,#857),.UNSPECIFIED.,.F.,.F.,(10,10),(5.,6.),
  .PIECEWISE_BEZIER_KNOTS.);
#848 = CARTESIAN_POINT('',(-115.,110.,920.));
#849 = CARTESIAN_POINT('',(-123.7266462599,109.99999999999,
    919.99999999999));
#850 = CARTESIAN_POINT('',(-132.4532926449,108.28652715222,
    919.99999999999));
#851 = CARTESIAN_POINT('',(-140.795435658,104.85958025788,
    920.00000000002));
#852 = CARTESIAN_POINT('',(-148.368577244,99.819826970534,
    919.99999999995));
#853 = CARTESIAN_POINT('',(-154.8198269705,93.36857724405,
    920.00000000005));
#854 = CARTESIAN_POINT('',(-159.8595802578,85.795435658044,
    919.99999999996));
#855 = CARTESIAN_POINT('',(-163.2865271522,77.453292644996,
    920.00000000001));
#856 = CARTESIAN_POINT('',(-164.9999999999,68.726646259972,
    919.99999999999));
#857 = CARTESIAN_POINT('',(-165.,60.,920.));
#858 = PCURVE('',#756,#859);
#859 = DEFINITIONAL_REPRESENTATION('',(#860),#864);
#860 = LINE('',#861,#862);
#861 = CARTESIAN_POINT('',(0.,0.));
#862 = VECTOR('',#863,1.);
#863 = DIRECTION('',(1.,0.));
#864 = ( GEOMETRIC_REPRESENTATION_CONTEXT(2) 
PARAMETRIC_REPRESENTATION_CONTEXT() REPRESENTATION_CONTEXT('2D SPACE',''
  ) );
#865 = PCURVE('',#87,#866);
#866 = DEFINITIONAL_REPRESENTATION('',(#867),#878);
#867 = B_SPLINE_CURVE_WITH_KNOTS('',9,(#868,#869,#870,#871,#872,#873,
    #874,#875,#876,#877),.UNSPECIFIED.,.F.,.F.,(10,10),(5.,6.),
  .PIECEWISE_BEZIER_KNOTS.);
#868 = CARTESIAN_POINT('',(132.38224277736,175.71266828898));
#869 = CARTESIAN_POINT('',(125.41232323393,180.96381830634));
#870 = CARTESIAN_POINT('',(117.41134277914,184.84642800749));
#871 = CARTESIAN_POINT('',(108.68640130722,187.12912627452));
#872 = CARTESIAN_POINT('',(99.605170586177,187.66094886719));
#873 = CARTESIAN_POINT('',(90.570637810043,186.39033343206));
#874 = CARTESIAN_POINT('',(81.988374329756,183.37431946758));
#875 = CARTESIAN_POINT('',(74.231512581907,178.77362268432));
#876 = CARTESIAN_POINT('',(67.61182209783,172.83476385249));
#877 = CARTESIAN_POINT('',(62.360672080466,165.86484430907));
#878 = ( GEOMETRIC_REPRESENTATION_CONTEXT(2) 
PARAMETRIC_REPRESENTATION_CONTEXT() REPRESENTATION_CONTEXT('2D SPACE',''
  ) );
#879 = ORIENTED_EDGE('',*,*,#880,.T.);
#880 = EDGE_CURVE('',#844,#881,#883,.T.);
#881 = VERTEX_POINT('',#882);
#882 = CARTESIAN_POINT('',(-150.,45.,1.54E+03));
#883 = SURFACE_CURVE('',#884,(#889,#896),.PCURVE_S1.);
#884 = ( BOUNDED_CURVE() B_SPLINE_CURVE(3,(#885,#886,#887,#888),
.UNSPECIFIED.,.F.,.F.) B_SPLINE_CURVE_WITH_KNOTS((4,4),(0.,1.),
.PIECEWISE_BEZIER_KNOTS.) CURVE() GEOMETRIC_REPRESENTATION_ITEM() 
RATIONAL_B_SPLINE_CURVE((1.,1.,1.,1.)) REPRESENTATION_ITEM('') );
#885 = CARTESIAN_POINT('',(-165.,60.,920.));
#886 = CARTESIAN_POINT('',(-85.75273050211,43.396069647729,
    1.128531766888E+03));
#887 = CARTESIAN_POINT('',(-265.6314310857,91.574906272089,
    1.340565556652E+03));
#888 = CARTESIAN_POINT('',(-150.,45.,1.54E+03));
#889 = PCURVE('',#756,#890);
#890 = DEFINITIONAL_REPRESENTATION('',(#891),#895);
#891 = LINE('',#892,#893);
#892 = CARTESIAN_POINT('',(6.,0.));
#893 = VECTOR('',#894,1.);
#894 = DIRECTION('',(0.,1.));
#895 = ( GEOMETRIC_REPRESENTATION_CONTEXT(2) 
PARAMETRIC_REPRESENTATION_CONTEXT() REPRESENTATION_CONTEXT('2D SPACE',''
  ) );
#896 = PCURVE('',#897,#938);
#897 = ( BOUNDED_SURFACE() B_SPLINE_SURFACE(9,3,(
    (#898,#899,#900,#901)
    ,(#902,#903,#904,#905)
    ,(#906,#907,#908,#909)
    ,(#910,#911,#912,#913)
    ,(#914,#915,#916,#917)
    ,(#918,#919,#920,#921)
    ,(#922,#923,#924,#925)
    ,(#926,#927,#928,#929)
    ,(#930,#931,#932,#933)
    ,(#934,#935,#936,#937
)),.UNSPECIFIED.,.F.,.F.,.F.) B_SPLINE_SURFACE_WITH_KNOTS((10,10),(4,4),
  (6.,7.),(0.,1.),.PIECEWISE_BEZIER_KNOTS.) 
GEOMETRIC_REPRESENTATION_ITEM() RATIONAL_B_SPLINE_SURFACE((
    (1.,1.,1.,1.)
    ,(1.,1.,1.,1.)
    ,(1.,1.,1.,1.)
    ,(1.,1.,1.,1.)
    ,(1.,1.,1.,1.)
    ,(1.,1.,1.,1.)
    ,(1.,1.,1.,1.)
    ,(1.,1.,1.,1.)
    ,(1.,1.,1.,1.)
,(1.,1.,1.,1.))) REPRESENTATION_ITEM('') SURFACE() );
#898 = CARTESIAN_POINT('',(-165.,60.,920.));
#899 = CARTESIAN_POINT('',(-85.75273050211,43.396069647729,
    1.128531766888E+03));
#900 = CARTESIAN_POINT('',(-265.6314310857,91.574906272089,
    1.340565556652E+03));
#901 = CARTESIAN_POINT('',(-150.,45.,1.54E+03));
#902 = CARTESIAN_POINT('',(-165.,46.666666666667,920.));
#903 = CARTESIAN_POINT('',(-85.75273050211,33.752498614901,
    1.128531766888E+03));
#904 = CARTESIAN_POINT('',(-265.6314310857,71.224927100514,
    1.340565556652E+03));
#905 = CARTESIAN_POINT('',(-150.,35.,1.54E+03));
#906 = CARTESIAN_POINT('',(-165.,33.333333333333,920.));
#907 = CARTESIAN_POINT('',(-85.75273050211,24.108927582072,
    1.128531766888E+03));
#908 = CARTESIAN_POINT('',(-265.6314310857,50.874947928939,
    1.340565556652E+03));
#909 = CARTESIAN_POINT('',(-150.,25.,1.54E+03));
#910 = CARTESIAN_POINT('',(-165.,20.,920.));
#911 = CARTESIAN_POINT('',(-85.75273050211,14.465356549243,
    1.128531766888E+03));
#912 = CARTESIAN_POINT('',(-265.6314310857,30.524968757363,
    1.340565556652E+03));
#913 = CARTESIAN_POINT('',(-150.,15.,1.54E+03));
#914 = CARTESIAN_POINT('',(-165.,6.666666666667,920.));
#915 = CARTESIAN_POINT('',(-85.75273050211,4.821785516414,
    1.128531766888E+03));
#916 = CARTESIAN_POINT('',(-265.6314310857,10.174989585788,
    1.340565556652E+03));
#917 = CARTESIAN_POINT('',(-150.,5.,1.54E+03));
#918 = CARTESIAN_POINT('',(-165.,-6.666666666667,920.));
#919 = CARTESIAN_POINT('',(-85.75273050211,-4.821785516414,
    1.128531766888E+03));
#920 = CARTESIAN_POINT('',(-265.6314310857,-10.17498958578,
    1.340565556652E+03));
#921 = CARTESIAN_POINT('',(-150.,-5.,1.54E+03));
#922 = CARTESIAN_POINT('',(-165.,-20.,920.));
#923 = CARTESIAN_POINT('',(-85.75273050211,-14.46535654924,
    1.128531766888E+03));
#924 = CARTESIAN_POINT('',(-265.6314310857,-30.52496875736,
    1.340565556652E+03));
#925 = CARTESIAN_POINT('',(-150.,-15.,1.54E+03));
#926 = CARTESIAN_POINT('',(-165.,-33.33333333333,920.));
#927 = CARTESIAN_POINT('',(-85.75273050211,-24.10892758207,
    1.128531766888E+03));
#928 = CARTESIAN_POINT('',(-265.6314310857,-50.87494792893,
    1.340565556652E+03));
#929 = CARTESIAN_POINT('',(-150.,-25.,1.54E+03));
#930 = CARTESIAN_POINT('',(-165.,-46.66666666666,920.));
#931 = CARTESIAN_POINT('',(-85.75273050211,-33.7524986149,
    1.128531766888E+03));
#932 = CARTESIAN_POINT('',(-265.6314310857,-71.22492710051,
    1.340565556652E+03));
#933 = CARTESIAN_POINT('',(-150.,-35.,1.54E+03));
#934 = CARTESIAN_POINT('',(-165.,-60.,920.));
#935 = CARTESIAN_POINT('',(-85.75273050211,-43.39606964772,
    1.128531766888E+03));
#936 = CARTESIAN_POINT('',(-265.6314310857,-91.57490627209,
    1.340565556652E+03));
#937 = CARTESIAN_POINT('',(-150.,-45.,1.54E+03));
#938 = DEFINITIONAL_REPRESENTATION('',(#939),#943);
#939 = LINE('',#940,#941);
#940 = CARTESIAN_POINT('',(6.,0.));
#941 = VECTOR('',#942,1.);
#942 = DIRECTION('',(0.,1.));
#943 = ( GEOMETRIC_REPRESENTATION_CONTEXT(2) 
PARAMETRIC_REPRESENTATION_CONTEXT() REPRESENTATION_CONTEXT('2D SPACE',''
  ) );
#944 = ORIENTED_EDGE('',*,*,#945,.F.);
#945 = EDGE_CURVE('',#740,#881,#946,.T.);
#946 = SURFACE_CURVE('',#947,(#958,#965),.PCURVE_S1.);
#947 = B_SPLINE_CURVE_WITH_KNOTS('',9,(#948,#949,#950,#951,#952,#953,
    #954,#955,#956,#957),.UNSPECIFIED.,.F.,.F.,(10,10),(5.,6.),
  .PIECEWISE_BEZIER_KNOTS.);
#948 = CARTESIAN_POINT('',(-105.,90.,1.54E+03));
#949 = CARTESIAN_POINT('',(-112.8539816339,89.999999999998,1.54E+03));
#950 = CARTESIAN_POINT('',(-120.7079633805,88.457874437005,1.54E+03));
#951 = CARTESIAN_POINT('',(-128.2158920922,85.373622232095,1.54E+03));
#952 = CARTESIAN_POINT('',(-135.0317195196,80.837844273487,1.54E+03));
#953 = CARTESIAN_POINT('',(-140.8378442734,75.031719519637,1.54E+03));
#954 = CARTESIAN_POINT('',(-145.3736222321,68.215892092245,1.54E+03));
#955 = CARTESIAN_POINT('',(-148.457874437,60.707963380494,1.54E+03));
#956 = CARTESIAN_POINT('',(-150.,52.853981633976,1.54E+03));
#957 = CARTESIAN_POINT('',(-150.,45.,1.54E+03));
#958 = PCURVE('',#756,#959);
#959 = DEFINITIONAL_REPRESENTATION('',(#960),#964);
#960 = LINE('',#961,#962);
#961 = CARTESIAN_POINT('',(0.,1.));
#962 = VECTOR('',#963,1.);
#963 = DIRECTION('',(1.,0.));
#964 = ( GEOMETRIC_REPRESENTATION_CONTEXT(2) 
PARAMETRIC_REPRESENTATION_CONTEXT() REPRESENTATION_CONTEXT('2D SPACE',''
  ) );
#965 = PCURVE('',#194,#966);
#966 = DEFINITIONAL_REPRESENTATION('',(#967),#978);
#967 = B_SPLINE_CURVE_WITH_KNOTS('',9,(#968,#969,#970,#971,#972,#973,
    #974,#975,#976,#977),.UNSPECIFIED.,.F.,.F.,(10,10),(5.,6.),
  .PIECEWISE_BEZIER_KNOTS.);
#968 = CARTESIAN_POINT('',(96.23011684413,152.11760125693));
#969 = CARTESIAN_POINT('',(89.592734363706,156.31643220321));
#970 = CARTESIAN_POINT('',(82.130913326415,159.21201631254));
#971 = CARTESIAN_POINT('',(74.137101903677,160.6193485909));
#972 = CARTESIAN_POINT('',(65.952181004927,160.42999418441));
#973 = CARTESIAN_POINT('',(57.941415262563,158.62727359174));
#974 = CARTESIAN_POINT('',(50.464417859077,155.29211317008));
#975 = CARTESIAN_POINT('',(43.844096168688,150.59605674794));
#976 = CARTESIAN_POINT('',(38.342018265136,144.78311263416));
#977 = CARTESIAN_POINT('',(34.143187318863,138.14573015373));
#978 = ( GEOMETRIC_REPRESENTATION_CONTEXT(2) 
PARAMETRIC_REPRESENTATION_CONTEXT() REPRESENTATION_CONTEXT('2D SPACE',''
  ) );
#979 = ORIENTED_EDGE('',*,*,#739,.F.);
#980 = ADVANCED_FACE('',(#981),#897,.T.);
#981 = FACE_BOUND('',#982,.T.);
#982 = EDGE_LOOP('',(#983,#1020,#1044,#1079));
#983 = ORIENTED_EDGE('',*,*,#984,.T.);
#984 = EDGE_CURVE('',#844,#985,#987,.T.);
#985 = VERTEX_POINT('',#986);
#986 = CARTESIAN_POINT('',(-165.,-60.,920.));
#987 = SURFACE_CURVE('',#988,(#999,#1006),.PCURVE_S1.);
#988 = B_SPLINE_CURVE_WITH_KNOTS('',9,(#989,#990,#991,#992,#993,#994,
    #995,#996,#997,#998),.UNSPECIFIED.,.F.,.F.,(10,10),(6.,7.),
  .PIECEWISE_BEZIER_KNOTS.);
#989 = CARTESIAN_POINT('',(-165.,60.,920.));
#990 = CARTESIAN_POINT('',(-165.,46.666666666667,920.));
#991 = CARTESIAN_POINT('',(-165.,33.333333333333,920.));
#992 = CARTESIAN_POINT('',(-165.,20.,920.));
#993 = CARTESIAN_POINT('',(-165.,6.666666666667,920.));
#994 = CARTESIAN_POINT('',(-165.,-6.666666666667,920.));
#995 = CARTESIAN_POINT('',(-165.,-20.,920.));
#996 = CARTESIAN_POINT('',(-165.,-33.33333333333,920.));
#997 = CARTESIAN_POINT('',(-165.,-46.66666666666,920.));
#998 = CARTESIAN_POINT('',(-165.,-60.,920.));
#999 = PCURVE('',#897,#1000);
#1000 = DEFINITIONAL_REPRESENTATION('',(#1001),#1005);
#1001 = LINE('',#1002,#1003);
#1002 = CARTESIAN_POINT('',(0.,0.));
#1003 = VECTOR('',#1004,1.);
#1004 = DIRECTION('',(1.,0.));
#1005 = ( GEOMETRIC_REPRESENTATION_CONTEXT(2) 
PARAMETRIC_REPRESENTATION_CONTEXT() REPRESENTATION_CONTEXT('2D SPACE',''
  ) );
#1006 = PCURVE('',#87,#1007);
#1007 = DEFINITIONAL_REPRESENTATION('',(#1008),#1019);
#1008 = B_SPLINE_CURVE_WITH_KNOTS('',9,(#1009,#1010,#1011,#1012,#1013,
    #1014,#1015,#1016,#1017,#1018),.UNSPECIFIED.,.F.,.F.,(10,10),(6.,7.)
  ,.PIECEWISE_BEZIER_KNOTS.);
#1009 = CARTESIAN_POINT('',(62.360672080466,165.86484430907));
#1010 = CARTESIAN_POINT('',(54.337505851535,155.21559168549));
#1011 = CARTESIAN_POINT('',(46.314339622603,144.56633906192));
#1012 = CARTESIAN_POINT('',(38.291173393672,133.91708643834));
#1013 = CARTESIAN_POINT('',(30.268007164741,123.26783381477));
#1014 = CARTESIAN_POINT('',(22.24484093581,112.61858119119));
#1015 = CARTESIAN_POINT('',(14.221674706879,101.96932856762));
#1016 = CARTESIAN_POINT('',(6.198508477948,91.320075944047));
#1017 = CARTESIAN_POINT('',(-1.824657750983,80.670823320472));
#1018 = CARTESIAN_POINT('',(-9.847823979914,70.021570696898));
#1019 = ( GEOMETRIC_REPRESENTATION_CONTEXT(2) 
PARAMETRIC_REPRESENTATION_CONTEXT() REPRESENTATION_CONTEXT('2D SPACE',''
  ) );
#1020 = ORIENTED_EDGE('',*,*,#1021,.T.);
#1021 = EDGE_CURVE('',#985,#1022,#1024,.T.);
#1022 = VERTEX_POINT('',#1023);
#1023 = CARTESIAN_POINT('',(-150.,-45.,1.54E+03));
#1024 = SURFACE_CURVE('',#1025,(#1030,#1037),.PCURVE_S1.);
#1025 = ( BOUNDED_CURVE() B_SPLINE_CURVE(3,(#1026,#1027,#1028,#1029),
.UNSPECIFIED.,.F.,.F.) B_SPLINE_CURVE_WITH_KNOTS((4,4),(0.,1.),
.PIECEWISE_BEZIER_KNOTS.) CURVE() GEOMETRIC_REPRESENTATION_ITEM() 
RATIONAL_B_SPLINE_CURVE((1.,1.,1.,1.)) REPRESENTATION_ITEM('') );
#1026 = CARTESIAN_POINT('',(-165.,-60.,920.));
#1027 = CARTESIAN_POINT('',(-85.75273050211,-43.39606964772,
    1.128531766888E+03));
#1028 = CARTESIAN_POINT('',(-265.6314310857,-91.57490627209,
    1.340565556652E+03));
#1029 = CARTESIAN_POINT('',(-150.,-45.,1.54E+03));
#1030 = PCURVE('',#897,#1031);
#1031 = DEFINITIONAL_REPRESENTATION('',(#1032),#1036);
#1032 = LINE('',#1033,#1034);
#1033 = CARTESIAN_POINT('',(7.,0.));
#1034 = VECTOR('',#1035,1.);
#1035 = DIRECTION('',(0.,1.));
#1036 = ( GEOMETRIC_REPRESENTATION_CONTEXT(2) 
PARAMETRIC_REPRESENTATION_CONTEXT() REPRESENTATION_CONTEXT('2D SPACE',''
  ) );
#1037 = PCURVE('',#228,#1038);
#1038 = DEFINITIONAL_REPRESENTATION('',(#1039),#1043);
#1039 = LINE('',#1040,#1041);
#1040 = CARTESIAN_POINT('',(7.,0.));
#1041 = VECTOR('',#1042,1.);
#1042 = DIRECTION('',(0.,1.));
#1043 = ( GEOMETRIC_REPRESENTATION_CONTEXT(2) 
PARAMETRIC_REPRESENTATION_CONTEXT() REPRESENTATION_CONTEXT('2D SPACE',''
  ) );
#1044 = ORIENTED_EDGE('',*,*,#1045,.F.);
#1045 = EDGE_CURVE('',#881,#1022,#1046,.T.);
#1046 = SURFACE_CURVE('',#1047,(#1058,#1065),.PCURVE_S1.);
#1047 = B_SPLINE_CURVE_WITH_KNOTS('',9,(#1048,#1049,#1050,#1051,#1052,
    #1053,#1054,#1055,#1056,#1057),.UNSPECIFIED.,.F.,.F.,(10,10),(6.,7.)
  ,.PIECEWISE_BEZIER_KNOTS.);
#1048 = CARTESIAN_POINT('',(-150.,45.,1.54E+03));
#1049 = CARTESIAN_POINT('',(-150.,35.,1.54E+03));
#1050 = CARTESIAN_POINT('',(-150.,25.,1.54E+03));
#1051 = CARTESIAN_POINT('',(-150.,15.,1.54E+03));
#1052 = CARTESIAN_POINT('',(-150.,5.,1.54E+03));
#1053 = CARTESIAN_POINT('',(-150.,-5.,1.54E+03));
#1054 = CARTESIAN_POINT('',(-150.,-15.,1.54E+03));
#1055 = CARTESIAN_POINT('',(-150.,-25.,1.54E+03));
#1056 = CARTESIAN_POINT('',(-150.,-35.,1.54E+03));
#1057 = CARTESIAN_POINT('',(-150.,-45.,1.54E+03));
#1058 = PCURVE('',#897,#1059);
#1059 = DEFINITIONAL_REPRESENTATION('',(#1060),#1064);
#1060 = LINE('',#1061,#1062);
#1061 = CARTESIAN_POINT('',(0.,1.));
#1062 = VECTOR('',#1063,1.);
#1063 = DIRECTION('',(1.,0.));
#1064 = ( GEOMETRIC_REPRESENTATION_CONTEXT(2) 
PARAMETRIC_REPRESENTATION_CONTEXT() REPRESENTATION_CONTEXT('2D SPACE',''
  ) );
#1065 = PCURVE('',#194,#1066);
#1066 = DEFINITIONAL_REPRESENTATION('',(#1067),#1078);
#1067 = B_SPLINE_CURVE_WITH_KNOTS('',9,(#1068,#1069,#1070,#1071,#1072,
    #1073,#1074,#1075,#1076,#1077),.UNSPECIFIED.,.F.,.F.,(10,10),(6.,7.)
  ,.PIECEWISE_BEZIER_KNOTS.);
#1068 = CARTESIAN_POINT('',(34.143187318863,138.14573015373));
#1069 = CARTESIAN_POINT('',(28.797069716411,129.69475230612));
#1070 = CARTESIAN_POINT('',(23.450952113959,121.24377445852));
#1071 = CARTESIAN_POINT('',(18.104834511508,112.79279661091));
#1072 = CARTESIAN_POINT('',(12.758716909056,104.3418187633));
#1073 = CARTESIAN_POINT('',(7.412599306604,95.890840915698));
#1074 = CARTESIAN_POINT('',(2.066481704153,87.43986306809));
#1075 = CARTESIAN_POINT('',(-3.279635898299,78.988885220483));
#1076 = CARTESIAN_POINT('',(-8.625753500751,70.537907372875));
#1077 = CARTESIAN_POINT('',(-13.9718711032,62.086929525267));
#1078 = ( GEOMETRIC_REPRESENTATION_CONTEXT(2) 
PARAMETRIC_REPRESENTATION_CONTEXT() REPRESENTATION_CONTEXT('2D SPACE',''
  ) );
#1079 = ORIENTED_EDGE('',*,*,#880,.F.);
#1080 = ADVANCED_FACE('',(#1081),#228,.T.);
#1081 = FACE_BOUND('',#1082,.T.);
#1082 = EDGE_LOOP('',(#1083,#1118,#1119,#1154));
#1083 = ORIENTED_EDGE('',*,*,#1084,.T.);
#1084 = EDGE_CURVE('',#985,#22,#1085,.T.);
#1085 = SURFACE_CURVE('',#1086,(#1097,#1104),.PCURVE_S1.);
#1086 = B_SPLINE_CURVE_WITH_KNOTS('',9,(#1087,#1088,#1089,#1090,#1091,
    #1092,#1093,#1094,#1095,#1096),.UNSPECIFIED.,.F.,.F.,(10,10),(7.,8.)
  ,.PIECEWISE_BEZIER_KNOTS.);
#1087 = CARTESIAN_POINT('',(-165.,-60.,920.));
#1088 = CARTESIAN_POINT('',(-164.9999999999,-68.72664625997,
    919.99999999998));
#1089 = CARTESIAN_POINT('',(-163.2865271522,-77.453292645,
    920.00000000005));
#1090 = CARTESIAN_POINT('',(-159.8595802578,-85.79543565803,
    919.99999999988));
#1091 = CARTESIAN_POINT('',(-154.8198269705,-93.36857724406,
    920.00000000016));
#1092 = CARTESIAN_POINT('',(-148.368577244,-99.81982697051,
    919.99999999983));
#1093 = CARTESIAN_POINT('',(-140.795435658,-104.8595802579,
    920.00000000012));
#1094 = CARTESIAN_POINT('',(-132.4532926449,-108.2865271522,
    919.99999999993));
#1095 = CARTESIAN_POINT('',(-123.7266462599,-110.,920.00000000001));
#1096 = CARTESIAN_POINT('',(-115.,-110.,920.));
#1097 = PCURVE('',#228,#1098);
#1098 = DEFINITIONAL_REPRESENTATION('',(#1099),#1103);
#1099 = LINE('',#1100,#1101);
#1100 = CARTESIAN_POINT('',(0.,0.));
#1101 = VECTOR('',#1102,1.);
#1102 = DIRECTION('',(1.,0.));
#1103 = ( GEOMETRIC_REPRESENTATION_CONTEXT(2) 
PARAMETRIC_REPRESENTATION_CONTEXT() REPRESENTATION_CONTEXT('2D SPACE',''
  ) );
#1104 = PCURVE('',#87,#1105);
#1105 = DEFINITIONAL_REPRESENTATION('',(#1106),#1117);
#1106 = B_SPLINE_CURVE_WITH_KNOTS('',9,(#1107,#1108,#1109,#1110,#1111,
    #1112,#1113,#1114,#1115,#1116),.UNSPECIFIED.,.F.,.F.,(10,10),(7.,8.)
  ,.PIECEWISE_BEZIER_KNOTS.);
#1107 = CARTESIAN_POINT('',(-9.847823979914,70.021570696898));
#1108 = CARTESIAN_POINT('',(-15.09897399727,63.051651153472));
#1109 = CARTESIAN_POINT('',(-18.98158369842,55.050670698679));
#1110 = CARTESIAN_POINT('',(-21.26428196544,46.325729226769));
#1111 = CARTESIAN_POINT('',(-21.79610455814,37.244498505701));
#1112 = CARTESIAN_POINT('',(-20.52548912296,28.20996572959));
#1113 = CARTESIAN_POINT('',(-17.50947515853,19.62770224928));
#1114 = CARTESIAN_POINT('',(-12.90877837524,11.870840501446));
#1115 = CARTESIAN_POINT('',(-6.969919543428,5.251150017363));
#1116 = CARTESIAN_POINT('',(0.,1.42108547152E-14));
#1117 = ( GEOMETRIC_REPRESENTATION_CONTEXT(2) 
PARAMETRIC_REPRESENTATION_CONTEXT() REPRESENTATION_CONTEXT('2D SPACE',''
  ) );
#1118 = ORIENTED_EDGE('',*,*,#213,.T.);
#1119 = ORIENTED_EDGE('',*,*,#1120,.F.);
#1120 = EDGE_CURVE('',#1022,#172,#1121,.T.);
#1121 = SURFACE_CURVE('',#1122,(#1133,#1140),.PCURVE_S1.);
#1122 = B_SPLINE_CURVE_WITH_KNOTS('',9,(#1123,#1124,#1125,#1126,#1127,
    #1128,#1129,#1130,#1131,#1132),.UNSPECIFIED.,.F.,.F.,(10,10),(7.,8.)
  ,.PIECEWISE_BEZIER_KNOTS.);
#1123 = CARTESIAN_POINT('',(-150.,-45.,1.54E+03));
#1124 = CARTESIAN_POINT('',(-149.9999999999,-52.85398163397,1.54E+03));
#1125 = CARTESIAN_POINT('',(-148.457874437,-60.7079633805,1.54E+03));
#1126 = CARTESIAN_POINT('',(-145.373622232,-68.21589209223,1.54E+03));
#1127 = CARTESIAN_POINT('',(-140.8378442734,-75.03171951965,1.54E+03));
#1128 = CARTESIAN_POINT('',(-135.0317195196,-80.83784427346,1.54E+03));
#1129 = CARTESIAN_POINT('',(-128.2158920922,-85.3736222321,1.54E+03));
#1130 = CARTESIAN_POINT('',(-120.7079633804,-88.45787443699,1.54E+03));
#1131 = CARTESIAN_POINT('',(-112.8539816339,-90.,1.54E+03));
#1132 = CARTESIAN_POINT('',(-105.,-90.,1.54E+03));
#1133 = PCURVE('',#228,#1134);
#1134 = DEFINITIONAL_REPRESENTATION('',(#1135),#1139);
#1135 = LINE('',#1136,#1137);
#1136 = CARTESIAN_POINT('',(0.,1.));
#1137 = VECTOR('',#1138,1.);
#1138 = DIRECTION('',(1.,0.));
#1139 = ( GEOMETRIC_REPRESENTATION_CONTEXT(2) 
PARAMETRIC_REPRESENTATION_CONTEXT() REPRESENTATION_CONTEXT('2D SPACE',''
  ) );
#1140 = PCURVE('',#194,#1141);
#1141 = DEFINITIONAL_REPRESENTATION('',(#1142),#1153);
#1142 = B_SPLINE_CURVE_WITH_KNOTS('',9,(#1143,#1144,#1145,#1146,#1147,
    #1148,#1149,#1150,#1151,#1152),.UNSPECIFIED.,.F.,.F.,(10,10),(7.,8.)
  ,.PIECEWISE_BEZIER_KNOTS.);
#1143 = CARTESIAN_POINT('',(-13.9718711032,62.086929525267));
#1144 = CARTESIAN_POINT('',(-18.17070204947,55.449547044843));
#1145 = CARTESIAN_POINT('',(-21.06628615881,47.987726007552));
#1146 = CARTESIAN_POINT('',(-22.47361843716,39.993914584816));
#1147 = CARTESIAN_POINT('',(-22.28426403069,31.80899368606));
#1148 = CARTESIAN_POINT('',(-20.48154343799,23.798227943704));
#1149 = CARTESIAN_POINT('',(-17.14638301635,16.321230540211));
#1150 = CARTESIAN_POINT('',(-12.4503265942,9.700908849827));
#1151 = CARTESIAN_POINT('',(-6.637382480426,4.198830946273));
#1152 = CARTESIAN_POINT('',(0.,2.13162820728E-14));
#1153 = ( GEOMETRIC_REPRESENTATION_CONTEXT(2) 
PARAMETRIC_REPRESENTATION_CONTEXT() REPRESENTATION_CONTEXT('2D SPACE',''
  ) );
#1154 = ORIENTED_EDGE('',*,*,#1021,.F.);
#1155 = ADVANCED_FACE('',(#1156),#87,.F.);
#1156 = FACE_BOUND('',#1157,.T.);
#1157 = EDGE_LOOP('',(#1158,#1159,#1160,#1161,#1162,#1163,#1164,#1165));
#1158 = ORIENTED_EDGE('',*,*,#21,.F.);
#1159 = ORIENTED_EDGE('',*,*,#1084,.F.);
#1160 = ORIENTED_EDGE('',*,*,#984,.F.);
#1161 = ORIENTED_EDGE('',*,*,#843,.F.);
#1162 = ORIENTED_EDGE('',*,*,#702,.F.);
#1163 = ORIENTED_EDGE('',*,*,#561,.F.);
#1164 = ORIENTED_EDGE('',*,*,#420,.F.);
#1165 = ORIENTED_EDGE('',*,*,#279,.F.);
#1166 = ADVANCED_FACE('',(#1167),#194,.T.);
#1167 = FACE_BOUND('',#1168,.T.);
#1168 = EDGE_LOOP('',(#1169,#1170,#1171,#1172,#1173,#1174,#1175,#1176));
#1169 = ORIENTED_EDGE('',*,*,#171,.T.);
#1170 = ORIENTED_EDGE('',*,*,#381,.T.);
#1171 = ORIENTED_EDGE('',*,*,#522,.T.);
#1172 = ORIENTED_EDGE('',*,*,#663,.T.);
#1173 = ORIENTED_EDGE('',*,*,#804,.T.);
#1174 = ORIENTED_EDGE('',*,*,#945,.T.);
#1175 = ORIENTED_EDGE('',*,*,#1045,.T.);
#1176 = ORIENTED_EDGE('',*,*,#1120,.T.);
#1177 = ( GEOMETRIC_REPRESENTATION_CONTEXT(3) 
GLOBAL_UNCERTAINTY_ASSIGNED_CONTEXT((#1181)) 
GLOBAL_UNIT_ASSIGNED_CONTEXT((#1178,#1179,#1180)) REPRESENTATION_CONTEXT
('Context #1','3D Context with UNIT and UNCERTAINTY') );
#1178 = ( LENGTH_UNIT() NAMED_UNIT(*) SI_UNIT(.MILLI.,.METRE.) );
#1179 = ( NAMED_UNIT(*) PLANE_ANGLE_UNIT() SI_UNIT($,.RADIAN.) );
#1180 = ( NAMED_UNIT(*) SI_UNIT($,.STERADIAN.) SOLID_ANGLE_UNIT() );
#1181 = UNCERTAINTY_MEASURE_WITH_UNIT(LENGTH_MEASURE(1.E-07),#1178,
  'distance_accuracy_value','confusion accuracy');
#1182 = PRODUCT_RELATED_PRODUCT_CATEGORY('part',$,(#7));
ENDSEC;
END-ISO-10303-21;
